<svg width="155" height="217" viewBox="0 0 155 217" fill="none" xmlns="http://www.w3.org/2000/svg">
<path d="M7.11603 154.852C4.74401 154.284 2.965 153.227 1.77899 151.68C0.592983 150.133 0 148.148 0 145.724V81.1385C0 80.726 0.128891 80.4166 0.386719 80.2103C0.644548 79.9525 0.953982 79.8236 1.31494 79.8236H24.2101C24.6226 79.8236 24.932 79.9525 25.1382 80.2103C25.3961 80.4166 25.525 80.726 25.525 81.1385C25.6281 92.9471 27.7938 103.312 32.0222 112.233C36.3022 121.102 42.258 127.96 49.8897 132.807C57.5214 137.603 66.2876 140.001 76.1882 140.001C86.295 140.001 95.1901 137.577 102.873 132.73C110.557 127.831 116.513 120.947 120.741 112.078C125.021 103.157 127.161 92.8439 127.161 81.1385C127.161 75.7242 126.594 70.5934 125.459 65.7462C124.325 60.899 122.649 56.5417 120.432 52.6743C119.658 50.5086 119.426 48.5233 119.735 46.7185C120.045 44.8621 120.999 43.212 122.597 41.7682L130.719 33.5693C132.111 32.3318 133.452 31.5325 134.741 31.1715C136.082 30.759 137.345 30.862 138.531 31.4808C139.717 32.0481 140.774 33.1051 141.702 34.6521C145.724 41.3041 148.793 48.5491 150.907 56.3871C153.072 64.1735 154.155 72.424 154.155 81.1385C154.155 96.5567 150.984 110.454 144.642 122.829C138.299 135.154 129.533 144.822 118.343 151.835C107.153 158.796 94.5456 162.277 80.5197 162.277C69.8456 162.277 60.1771 160.111 51.514 155.78C42.9026 151.397 35.6834 145.08 29.8565 136.829C29.2377 136.004 28.6189 135.514 28.0001 135.36C27.4329 135.153 26.943 135.308 26.5305 135.824C26.1696 136.288 25.9891 137.036 25.9891 138.067V150.056C25.9891 152.944 25.1382 155.058 23.4366 156.399C21.7865 157.739 19.5949 158.049 16.8619 157.327L7.11603 154.852ZM8.19891 216.653C5.5175 216.653 3.48065 215.931 2.08838 214.487C0.696107 213.095 0 211.058 0 208.377V172.178C0 169.29 0.825059 167.176 2.47516 165.835C4.17682 164.494 6.36833 164.185 9.04974 164.907L18.873 167.382C21.1934 167.949 22.9467 169.006 24.1327 170.553C25.3703 172.1 25.9891 174.086 25.9891 176.509V208.377C25.9891 211.058 25.2671 213.095 23.8233 214.487C22.431 215.931 20.3942 216.653 17.7128 216.653H8.19891ZM1.31494 82.4535C0.953982 82.4535 0.644548 82.3246 0.386719 82.0668C0.128891 81.8089 0 81.4995 0 81.1385V11.1382C0 8.45677 0.696107 6.41998 2.08838 5.02771C3.48065 3.58387 5.5175 2.86194 8.19891 2.86194H15.6244C18.1511 2.86194 20.1364 3.4808 21.5802 4.71838C23.024 5.90439 23.8233 7.63175 23.978 9.90063L24.9062 24.2875C25.0609 25.886 25.5507 26.8142 26.3758 27.072C27.2008 27.3298 28.129 26.8142 29.1603 25.525C34.9357 17.223 42.2322 10.9062 51.0499 6.57471C59.8676 2.19163 69.6909 0 80.5197 0C88.8218 0 96.7113 1.28915 104.188 3.86743C111.665 6.44572 118.524 10.1327 124.763 14.9283C126.722 16.5269 127.702 18.3059 127.702 20.2654C127.702 22.2249 126.8 24.1328 124.995 25.9891L118.343 32.6411C116.641 34.3943 114.888 35.2452 113.083 35.1936C111.279 35.142 109.319 34.2654 107.205 32.5637C104.42 30.3464 101.378 28.4643 98.0778 26.9174C94.8292 25.3704 91.3743 24.2101 87.7131 23.4366C84.052 22.6632 80.2103 22.2764 76.1882 22.2764C66.2876 22.2764 57.5214 24.7 49.8897 29.5471C42.258 34.3427 36.3022 41.201 32.0222 50.1218C27.7938 58.9911 25.6281 69.33 25.525 81.1385C25.525 81.4995 25.3961 81.8089 25.1382 82.0668C24.932 82.3246 24.6226 82.4535 24.2101 82.4535H1.31494Z" fill="#8FA6F9"/>
</svg>
