<svg width="157" height="162" viewBox="0 0 157 162" fill="none" xmlns="http://www.w3.org/2000/svg">
<path d="M124.067 122.197C122.365 120.599 121.385 118.897 121.128 117.092C120.87 115.287 121.205 113.328 122.133 111.214C124.454 106.573 126.233 101.7 127.47 96.5949C128.708 91.4899 129.327 86.0755 129.327 80.3517C129.327 70.348 127.728 61.3756 124.531 53.4345C121.334 45.4418 116.796 38.8672 110.918 33.7106C105.039 28.5541 98.1809 25.0992 90.343 23.346C88.6929 22.8819 87.3264 22.2889 86.2435 21.567C85.2122 20.7935 84.4387 19.8395 83.923 18.7051C83.4074 17.5706 83.1495 16.2299 83.1495 14.6829V7.56689C83.1495 4.93703 83.8715 2.95176 85.3153 1.61105C86.8107 0.218784 88.8218 -0.245306 91.3485 0.218787C103.93 2.17829 115.146 6.81919 124.995 14.1415C134.844 21.4638 142.527 30.8746 148.045 42.3737C153.562 53.8213 156.321 66.4806 156.321 80.3517C156.321 89.4273 155.135 98.0388 152.763 106.186C150.391 114.282 146.988 121.682 142.553 128.385C141.006 130.551 139.227 131.711 137.216 131.866C135.205 131.969 133.22 131.118 131.26 129.313L124.067 122.197ZM78.1992 161.49C63.3484 161.49 49.9671 158.01 38.0554 151.048C26.1953 144.035 16.8877 134.367 10.1326 122.043C3.37753 109.667 0 95.7699 0 80.3517C0 79.9392 0.128921 79.6298 0.386749 79.4236C0.644577 79.1657 0.953952 79.0368 1.31491 79.0368H25.6797C26.0922 79.0368 26.4016 79.1657 26.6078 79.4236C26.8657 79.6298 26.9946 79.9392 26.9946 80.3517C26.9946 92.0056 29.1346 102.241 33.4145 111.059C37.6945 119.877 43.6761 126.709 51.3593 131.556C59.0942 136.404 68.0408 138.827 78.1992 138.827C83.8715 138.827 89.2085 138.028 94.2104 136.429C99.2123 134.831 103.698 132.51 107.669 129.468C109.835 128.076 111.794 127.405 113.547 127.457C115.352 127.509 117.106 128.385 118.807 130.087L124.763 136.043C126.001 137.28 126.826 138.544 127.238 139.833C127.651 141.122 127.599 142.385 127.083 143.623C126.568 144.86 125.562 145.969 124.067 146.949C117.724 151.641 110.66 155.251 102.873 157.778C95.1385 160.253 86.9138 161.49 78.1992 161.49ZM1.31491 81.6667C0.953952 81.6667 0.644577 81.5635 0.386749 81.3573C0.128921 81.0995 0 80.7643 0 80.3517C0 66.9963 2.62983 54.6463 7.88953 43.3019C13.2008 31.9059 20.7036 22.4436 30.3979 14.915C40.0923 7.38641 51.3851 2.48767 64.2766 0.218787C64.4312 0.218787 64.5344 0.218787 64.5859 0.218787C64.6891 0.167226 64.818 0.141441 64.9727 0.141441C67.4994 -0.271091 69.5105 0.218784 71.0059 1.61105C72.5013 2.95176 73.249 4.93703 73.249 7.56689V14.8376C73.249 17.1581 72.6559 19.0145 71.4699 20.4067C70.3355 21.799 68.5049 22.8819 65.9782 23.6553C65.9266 23.6553 65.8751 23.6811 65.8235 23.7327C65.7719 23.7327 65.7204 23.7327 65.6688 23.7327C57.573 25.4859 50.6116 29.0698 44.7847 34.4841C38.9578 39.8985 34.5232 46.6021 31.4808 54.5947C28.49 62.5358 26.9946 71.1215 26.9946 80.3517C26.9946 80.7127 26.8657 81.0221 26.6078 81.2799C26.4016 81.5378 26.0922 81.6667 25.6797 81.6667H1.31491Z" fill="#FFA18C"/>
</svg>
