<svg width="131" height="157" viewBox="0 0 131 157" fill="none" xmlns="http://www.w3.org/2000/svg">
<path d="M8.27625 156.553C5.59483 156.553 3.53222 155.857 2.08838 154.465C0.696108 153.021 0 150.958 0 148.277V141.393C0 139.382 0.309375 137.577 0.928162 135.979C1.54695 134.328 2.55249 132.704 3.94476 131.106L90.9617 26.0664C91.8899 24.8804 92.1219 23.9007 91.6578 23.1272C91.2453 22.3021 90.3171 21.8896 88.8733 21.8896H10.2873C7.60588 21.8896 5.56909 21.1935 4.17682 19.8012C2.78455 18.3574 2.08838 16.2947 2.08838 13.6133V8.27629C2.08838 5.59488 2.78455 3.55803 4.17682 2.16576C5.56909 0.721921 7.60588 0 10.2873 0H119.117C121.798 0 123.835 0.721921 125.227 2.16576C126.671 3.55803 127.393 5.59488 127.393 8.27629V15.1603C127.393 17.1714 127.083 19.0019 126.465 20.652C125.846 22.2506 124.84 23.8491 123.448 25.4476L36.4311 130.487C35.5029 131.673 35.2451 132.678 35.6576 133.503C36.0701 134.277 36.9983 134.664 38.4421 134.664H121.824C124.505 134.664 126.542 135.386 127.934 136.829C129.327 138.222 130.023 140.258 130.023 142.94V148.277C130.023 150.958 129.327 153.021 127.934 154.465C126.542 155.857 124.505 156.553 121.824 156.553H8.27625Z" fill="#FFA18C"/>
</svg>
