<svg width="147" height="214" viewBox="0 0 147 214" fill="none" xmlns="http://www.w3.org/2000/svg">
<path d="M49.1407 213.791C47.1297 213.791 45.5053 213.379 44.2677 212.553C43.0817 211.78 42.334 210.671 42.0246 209.228C41.7152 207.835 41.9215 206.185 42.6435 204.277L59.2733 161.813C59.5827 161.091 59.7374 160.292 59.7374 159.415C59.7374 158.59 59.5827 157.817 59.2733 157.095L0.797936 9.51392C0.0760174 7.60599 -0.156059 5.93004 0.101769 4.48621C0.411162 3.04237 1.18469 1.93376 2.42226 1.16028C3.65984 0.386789 5.3099 0 7.37252 0H17.5052C19.7741 0 21.7078 0.567213 23.3063 1.70166C24.9048 2.8361 26.1166 4.46039 26.9417 6.57458L71.417 120.973C71.778 121.901 72.2678 122.571 72.8866 122.984C73.5054 123.345 74.1243 123.345 74.7431 122.984C75.3619 122.623 75.8259 121.953 76.1353 120.973L120.533 6.57458C121.358 4.46039 122.57 2.8361 124.169 1.70166C125.767 0.567213 127.701 0 129.97 0H139.174C141.185 0 142.784 0.412497 143.97 1.23755C145.207 2.01103 145.981 3.11976 146.29 4.5636C146.6 5.95587 146.393 7.60599 145.672 9.51392L67.7816 207.216C66.9566 209.331 65.7448 210.955 64.1463 212.089C62.5477 213.224 60.6141 213.791 58.3452 213.791H49.1407Z" fill="#8FA6F9"/>
</svg>
