<svg width="118" height="220" viewBox="0 0 118 220" fill="none" xmlns="http://www.w3.org/2000/svg">
<path d="M8.27628 219.67C5.59486 219.67 3.53225 218.973 2.08841 217.581C0.696138 216.137 0 214.075 0 211.393V206.056C0 203.375 0.696138 201.338 2.08841 199.946C3.53225 198.502 5.59486 197.78 8.27628 197.78H42.4643C43.5472 197.78 44.398 197.471 45.0168 196.852C45.6871 196.233 46.0223 195.382 46.0223 194.299V143.945C46.0223 141.728 46.4606 139.846 47.3372 138.299C48.2139 136.701 49.5803 135.36 51.4367 134.277L62.1108 128.708C64.0703 127.522 65.772 126.903 67.2158 126.851C68.7112 126.8 69.8714 127.393 70.6965 128.63C71.5731 129.817 72.0114 131.673 72.0114 134.2V194.299C72.0114 195.382 72.3208 196.233 72.9396 196.852C73.5584 197.471 74.4092 197.78 75.4921 197.78H109.757C112.439 197.78 114.476 198.502 115.868 199.946C117.26 201.338 117.956 203.375 117.956 206.056V211.393C117.956 214.075 117.26 216.137 115.868 217.581C114.476 218.973 112.439 219.67 109.757 219.67H8.27628ZM55.9229 119.039C54.1697 120.174 52.5196 120.715 50.9726 120.664C49.4772 120.56 48.2654 119.89 47.3372 118.652C46.4606 117.415 46.0223 115.713 46.0223 113.547V26.9172C46.0223 24.9577 46.0997 23.2561 46.2544 21.8123C46.4606 20.3684 46.7442 18.873 47.1052 17.326L49.8897 7.42554C50.5601 4.95039 51.643 3.09403 53.1384 1.85645C54.6853 0.618874 56.5933 0 58.8622 0H63.7351C66.4165 0 68.4533 0.721928 69.8456 2.16577C71.2894 3.55804 72.0114 5.59495 72.0114 8.27637V103.724C72.0114 105.942 71.5473 107.849 70.6191 109.448C69.7425 111.047 68.376 112.387 66.5197 113.47L55.9229 119.039ZM10.1326 21.8896C7.45122 21.8896 5.3886 21.1935 3.94476 19.8013C2.55249 18.3574 1.85635 16.2948 1.85635 13.6134V8.27637C1.85635 5.59495 2.55249 3.55804 3.94476 2.16577C5.3886 0.721928 7.45122 0 10.1326 0H32.2543C35.0904 0 37.2046 0.825117 38.5969 2.47522C40.0407 4.12532 40.4017 6.29101 39.6797 8.97241L38.1328 14.4642C37.514 17.0425 36.4311 18.9246 34.8841 20.1106C33.3887 21.2966 31.4808 21.8896 29.1604 21.8896H10.1326Z" fill="#FFA18C"/>
</svg>
