<svg width="138" height="160" viewBox="0 0 138 160" fill="none" xmlns="http://www.w3.org/2000/svg">
<path d="M137.061 148.277C137.061 150.958 136.339 153.021 134.896 154.465C133.503 155.857 131.467 156.553 128.785 156.553H120.741C118.214 156.553 116.229 155.909 114.785 154.62C113.393 153.279 112.594 151.371 112.387 148.896L111.691 136.365C111.64 134.818 111.175 133.916 110.299 133.658C109.422 133.349 108.468 133.864 107.437 135.205C101.662 143.301 94.5456 149.36 86.0888 153.382C77.6836 157.404 68.1698 159.415 57.5472 159.415C45.7387 159.415 35.5029 156.966 26.8399 152.067C18.2284 147.168 11.6023 139.898 6.96136 130.255C2.32046 120.612 0 108.855 0 94.9839V8.27631C0 5.59489 0.696169 3.55804 2.08844 2.16577C3.48071 0.721928 5.51756 0 8.19897 0H17.7128C20.3942 0 22.4311 0.721928 23.8234 2.16577C25.2672 3.55804 25.9891 5.59489 25.9891 8.27631V90.575C25.9891 100.579 27.5618 109.036 30.7073 115.945C33.8528 122.855 38.3649 128.037 44.2433 131.492C50.1218 134.947 57.1863 136.675 65.4368 136.675C74.5123 136.675 82.4792 134.638 89.3375 130.564C96.1957 126.49 101.533 120.535 105.349 112.697C109.164 104.807 111.072 95.319 111.072 84.2324V8.27631C111.072 5.59489 111.768 3.55804 113.161 2.16577C114.553 0.721928 116.59 0 119.271 0H128.785C131.467 0 133.503 0.721928 134.896 2.16577C136.339 3.55804 137.061 5.59489 137.061 8.27631V148.277Z" fill="#80948C"/>
</svg>
