<svg width="138" height="160" viewBox="0 0 138 160" fill="none" xmlns="http://www.w3.org/2000/svg">
<path d="M0 11.1382C0 8.45677 0.696229 6.41998 2.0885 5.02771C3.48077 3.58387 5.51756 2.86194 8.19897 2.86194H16.2432C18.7699 2.86194 20.7294 3.53234 22.1217 4.87305C23.5655 6.16219 24.3905 8.04426 24.5968 10.5194L25.3704 23.978C25.3704 25.0609 25.5766 25.8602 25.9891 26.3759C26.4017 26.8399 26.9173 26.9688 27.5361 26.7626C28.2065 26.5047 28.8768 25.9375 29.5471 25.0609C35.2709 16.6042 42.3354 10.3132 50.7406 6.18799C59.1974 2.06274 68.7886 0 79.5143 0C91.3228 0 101.533 2.44941 110.144 7.34814C118.756 12.2469 125.382 19.5176 130.023 29.1604C134.715 38.8032 137.062 50.5601 137.062 64.4313V151.139C137.062 153.82 136.34 155.883 134.896 157.327C133.503 158.719 131.467 159.415 128.785 159.415H119.271C116.59 159.415 114.553 158.719 113.161 157.327C111.768 155.883 111.072 153.82 111.072 151.139V68.8402C111.072 58.8365 109.5 50.3796 106.354 43.4698C103.209 36.5601 98.6709 31.3777 92.7408 27.9229C86.8624 24.468 79.7979 22.7405 71.5474 22.7405C62.5234 22.7405 54.5565 24.7774 47.6467 28.8511C40.7885 32.9248 35.4515 38.9064 31.6356 46.7959C27.8713 54.6339 25.9891 64.0961 25.9891 75.1827V151.139C25.9891 153.82 25.2672 155.883 23.8234 157.327C22.4311 158.719 20.3943 159.415 17.7129 159.415H8.19897C5.51756 159.415 3.48077 158.719 2.0885 157.327C0.696229 155.883 0 153.82 0 151.139V11.1382Z" fill="#E8C3F0"/>
</svg>
