<svg width="118" height="220" viewBox="0 0 118 220" fill="none" xmlns="http://www.w3.org/2000/svg">
<path d="M63.735 0C66.4165 0 68.4533 0.721867 69.8456 2.16571C71.2894 3.55798 72.0114 5.59483 72.0114 8.27625V194.299C72.0114 195.382 72.3207 196.233 72.9395 196.852C73.5583 197.471 74.4091 197.78 75.492 197.78H109.757C112.439 197.78 114.476 198.502 115.868 199.946C117.26 201.338 117.956 203.375 117.956 206.056V211.393C117.956 214.075 117.26 216.137 115.868 217.581C114.476 218.973 112.439 219.669 109.757 219.669H8.27625C5.59483 219.669 3.53222 218.973 2.08838 217.581C0.696107 216.137 0 214.075 0 211.393V206.056C0 203.375 0.696107 201.338 2.08838 199.946C3.53222 198.502 5.59483 197.78 8.27625 197.78H42.4642C43.5471 197.78 44.3979 197.471 45.0167 196.852C45.6871 196.233 46.0223 195.382 46.0223 194.299V25.3702C46.0223 24.2874 45.6871 23.4365 45.0167 22.8177C44.3979 22.199 43.5471 21.8896 42.4642 21.8896H10.1326C7.45122 21.8896 5.3886 21.1934 3.94476 19.8011C2.55249 18.3573 1.85632 16.2947 1.85632 13.6133V8.27625C1.85632 5.59483 2.55249 3.55798 3.94476 2.16571C5.3886 0.721867 7.45122 0 10.1326 0H63.735Z" fill="#E8C3F0"/>
</svg>
