<svg width="138" height="160" viewBox="0 0 138 160" fill="none" xmlns="http://www.w3.org/2000/svg">
<path d="M1.31494 85.1606C0.850851 84.9544 0.515711 84.6965 0.309448 84.3871C0.103185 84.0778 0 83.691 0 83.2269V11.1382C0 8.45677 0.696168 6.41992 2.08844 5.02765C3.48071 3.58381 5.51756 2.86188 8.19897 2.86188H16.2432C18.8214 2.86188 20.8325 3.53222 22.2764 4.87292C23.7202 6.16207 24.4937 8.04426 24.5968 10.5194L25.3703 24.0554C25.4219 25.1382 25.6539 25.9117 26.0665 26.3758C26.5306 26.8399 27.0719 26.9688 27.6907 26.7626C28.3611 26.5047 28.9799 25.9375 29.5471 25.0609C35.2709 16.6042 42.3354 10.3131 50.7406 6.18787C59.1974 2.06261 68.7886 0 79.5142 0C80.0299 0 80.4166 0 80.6744 0C80.9323 0 81.319 0 81.8347 0C83.5879 0 85.0059 0.386728 86.0888 1.16022C87.1717 1.93369 87.842 3.01661 88.0999 4.40887C88.4092 5.80115 88.3319 7.3739 87.8679 9.12714L84.5419 17.4034C84.0778 18.9503 83.5363 20.1879 82.9175 21.1161C82.2988 21.9927 81.5511 22.5858 80.6744 22.8951C79.7978 23.153 78.7149 23.2045 77.4258 23.0498C76.2398 22.9467 75.2601 22.8694 74.4866 22.8178C73.7131 22.7662 72.7333 22.7404 71.5473 22.7404C62.5233 22.7404 54.5565 24.7773 47.6467 28.851C40.7884 32.9246 35.4514 38.9062 31.6356 46.7958C27.8713 54.6338 25.9891 64.0961 25.9891 75.1827V92.9728C25.9891 93.2306 25.9375 93.4369 25.8344 93.5916C25.7313 93.7463 25.5508 93.8236 25.293 93.8236C25.0867 93.8236 24.8289 93.7463 24.5195 93.5916L1.31494 85.1606ZM8.19897 159.415C5.51756 159.415 3.48071 158.719 2.08844 157.327C0.696168 155.883 0 153.82 0 151.139V83.2269C0 82.7628 0.103185 82.4792 0.309448 82.3761C0.515711 82.2214 0.850851 82.2472 1.31494 82.4534L24.5195 90.9617C25.0351 91.1164 25.3961 91.3743 25.6024 91.7352C25.8602 92.0962 25.9891 92.5087 25.9891 92.9728V151.139C25.9891 153.82 25.2672 155.883 23.8234 157.327C22.4311 158.719 20.3942 159.415 17.7128 159.415H8.19897ZM119.271 159.415C116.59 159.415 114.553 158.719 113.161 157.327C111.768 155.883 111.072 153.82 111.072 151.139V139.227C111.072 136.752 111.691 134.741 112.929 133.194C114.218 131.647 116.074 130.667 118.498 130.255L128.166 129.017C130.848 128.501 132.988 128.94 134.586 130.332C136.236 131.673 137.061 133.735 137.061 136.52V151.139C137.061 153.82 136.34 155.883 134.896 157.327C133.503 158.719 131.467 159.415 128.785 159.415H119.271ZM119.89 120.122C117.209 120.638 115.069 120.225 113.47 118.885C111.872 117.492 111.072 115.404 111.072 112.619V68.8401C111.072 60.0224 109.654 52.5711 106.818 46.4864C103.982 40.3501 99.8826 35.8123 94.5198 32.8731C93.6432 31.8418 92.9471 30.8362 92.4314 29.8565C91.9157 28.8768 91.6064 27.8196 91.5032 26.6852C91.4517 25.5507 91.6322 24.3132 92.0447 22.9725L96.9949 10.8288C97.5106 9.12713 98.2583 7.81221 99.238 6.88403C100.269 5.90429 101.455 5.36284 102.796 5.2597C104.137 5.15657 105.555 5.51754 107.05 6.34259C113.341 9.28183 118.73 13.4587 123.216 18.873C127.702 24.2359 131.131 30.7847 133.503 38.5195C135.875 46.2028 137.061 54.84 137.061 64.4312V109.912C137.061 112.387 136.417 114.398 135.128 115.945C133.839 117.492 132.008 118.472 129.636 118.885L119.89 120.122Z" fill="#80948C"/>
</svg>
