<svg width="152" height="163" viewBox="0 0 152 163" fill="none" xmlns="http://www.w3.org/2000/svg">
<path d="M142.012 107.36C143.868 107.36 145.415 107.721 146.653 108.443C147.89 109.113 148.715 110.118 149.128 111.459C149.54 112.8 149.437 114.347 148.818 116.1C145.828 125.124 140.877 133.142 133.967 140.155C127.058 147.168 118.781 152.608 109.139 156.476C99.4958 160.343 89.2085 162.277 78.2766 162.277C63.3741 162.277 49.9671 158.796 38.0554 151.835C26.1438 144.822 16.8104 135.153 10.0553 122.829C3.35177 110.505 0 96.6082 0 81.1385C0 65.6688 3.32597 51.7719 9.97794 39.4477C16.6299 27.1235 25.8344 17.4807 37.5913 10.5194C49.3999 3.50645 62.678 0 77.4258 0C91.6579 0 104.42 3.24864 115.713 9.74591C127.006 16.2432 135.85 25.3703 142.244 37.1272C148.638 48.8326 151.835 62.2397 151.835 77.3484V78.4313C151.835 80.958 151.139 82.9175 149.747 84.3098C148.406 85.6505 146.472 86.3208 143.945 86.3208H30.3979C29.315 86.3208 28.4642 86.656 27.8454 87.3264C27.2266 87.9452 26.9946 88.796 27.1493 89.8789C28.0775 100.14 30.7589 109.087 35.1935 116.719C39.6282 124.299 45.5324 130.152 52.9063 134.277C60.2802 138.402 68.737 140.465 78.2766 140.465C85.3411 140.465 91.8899 139.356 97.9231 137.139C103.956 134.921 109.139 131.776 113.47 127.702C117.802 123.629 121.05 118.91 123.216 113.547C124.196 111.433 125.382 109.886 126.774 108.907C128.218 107.875 130.023 107.36 132.188 107.36H142.012ZM28.3869 63.8124C28.0259 64.9984 28.1548 65.9524 28.7736 66.6743C29.3924 67.3963 30.2948 67.7572 31.4808 67.7572H121.205C122.339 67.7572 123.242 67.3963 123.912 66.6743C124.583 65.9524 124.815 65.0242 124.608 63.8898C123.371 55.433 120.638 48.0334 116.409 41.6908C112.233 35.3482 106.792 30.4495 100.089 26.9946C93.4369 23.4881 85.8825 21.7349 77.4258 21.7349C68.969 21.7349 61.3373 23.4366 54.5306 26.8399C47.7755 30.2432 42.1549 35.1162 37.6687 41.4587C33.234 47.7497 30.1401 55.201 28.3869 63.8124Z" fill="#8FA6F9"/>
</svg>
