<svg width="157" height="162" viewBox="0 0 157 162" fill="none" xmlns="http://www.w3.org/2000/svg">
<path d="M124.067 122.197C122.365 120.599 121.386 118.897 121.128 117.092C120.87 115.287 121.205 113.328 122.133 111.214C124.454 106.573 126.233 101.7 127.47 96.5949C128.708 91.4899 129.327 86.0756 129.327 80.3518C129.327 70.348 127.728 61.3756 124.531 53.4345C121.334 45.4419 116.796 38.8672 110.918 33.7107C105.039 28.5541 98.181 25.0993 90.343 23.346C88.6929 22.8819 87.3264 22.2889 86.2435 21.567C85.2122 20.7935 84.4388 19.8395 83.9231 18.705C83.4074 17.5706 83.1495 16.2299 83.1495 14.6829V7.56686C83.1495 4.937 83.8715 2.95175 85.3153 1.61105C86.8107 0.218777 88.8218 -0.245259 91.3485 0.218834C103.931 2.17833 115.146 6.81925 124.995 14.1416C134.844 21.4639 142.527 30.8746 148.045 42.3737C153.562 53.8213 156.321 66.4806 156.321 80.3518C156.321 89.4273 155.135 98.0388 152.763 106.186C150.391 114.282 146.988 121.682 142.553 128.385C141.006 130.551 139.227 131.711 137.216 131.866C135.205 131.969 133.22 131.118 131.26 129.313L124.067 122.197ZM78.1993 161.49C63.3484 161.49 49.9671 158.01 38.0554 151.048C26.1953 144.035 16.8878 134.367 10.1327 122.043C3.37759 109.667 0 95.7699 0 80.3518C0 79.9392 0.128952 79.6298 0.38678 79.4235C0.644608 79.1657 0.953982 79.0368 1.31494 79.0368H25.6797C26.0922 79.0368 26.4016 79.1657 26.6079 79.4235C26.8657 79.6298 26.9946 79.9392 26.9946 80.3518C26.9946 92.0056 29.1346 102.241 33.4146 111.059C37.6945 119.877 43.6761 126.709 51.3594 131.556C59.0942 136.404 68.0409 138.827 78.1993 138.827C83.8716 138.827 89.2086 138.028 94.2104 136.429C99.2123 134.831 103.699 132.51 107.669 129.468C109.835 128.076 111.794 127.405 113.547 127.457C115.352 127.509 117.106 128.385 118.807 130.087L124.763 136.043C126.001 137.28 126.826 138.544 127.238 139.833C127.651 141.122 127.599 142.385 127.083 143.623C126.568 144.86 125.562 145.969 124.067 146.949C117.724 151.641 110.66 155.251 102.873 157.778C95.1386 160.253 86.9139 161.49 78.1993 161.49ZM1.31494 81.6667C0.953982 81.6667 0.644608 81.5635 0.38678 81.3573C0.128952 81.0994 0 80.7643 0 80.3518C0 66.9963 2.6299 54.6463 7.88959 43.3018C13.2008 31.9058 20.7036 22.4436 30.3979 14.915C40.0923 7.38641 51.3852 2.48772 64.2766 0.218834C64.4313 0.218834 64.5344 0.218834 64.5859 0.218834C64.6891 0.167272 64.818 0.141442 64.9727 0.141442C67.4994 -0.27109 69.5105 0.218777 71.0059 1.61105C72.5013 2.95175 73.249 4.937 73.249 7.56686V14.8376C73.249 17.1581 72.656 19.0144 71.47 20.4067C70.3355 21.799 68.505 22.8819 65.9783 23.6554C65.9267 23.6554 65.8751 23.6812 65.8235 23.7327C65.7719 23.7327 65.7204 23.7327 65.6688 23.7327C57.573 25.486 50.6117 29.0698 44.7848 34.4842C38.9579 39.8986 34.5232 46.6021 31.4808 54.5948C28.49 62.5359 26.9946 71.1215 26.9946 80.3518C26.9946 80.7127 26.8657 81.0222 26.6079 81.28C26.4016 81.5378 26.0922 81.6667 25.6797 81.6667H1.31494Z" fill="#E8C3F0"/>
</svg>
