<svg width="157" height="163" viewBox="0 0 157 163" fill="none" xmlns="http://www.w3.org/2000/svg">
<path d="M78.1992 162.277C63.3484 162.277 49.9671 158.796 38.0554 151.835C26.1953 144.822 16.8877 135.154 10.1326 122.829C3.37753 110.454 0 96.5567 0 81.1385C0 65.7204 3.37753 51.8493 10.1326 39.5251C16.8877 27.1494 26.1953 17.4808 38.0554 10.5194C49.9671 3.50648 63.3484 0 78.1992 0C92.9986 0 106.328 3.50648 118.188 10.5194C130.1 17.4808 139.433 27.1494 146.189 39.5251C152.944 51.8493 156.321 65.7204 156.321 81.1385C156.321 96.5567 152.944 110.454 146.189 122.829C139.433 135.154 130.1 144.822 118.188 151.835C106.328 158.796 92.9986 162.277 78.1992 162.277ZM78.1992 139.614C88.3061 139.614 97.227 137.19 104.962 132.343C112.697 127.496 118.678 120.664 122.907 111.846C127.187 103.028 129.327 92.7924 129.327 81.1385C129.327 69.4847 127.187 59.249 122.907 50.4313C118.678 41.6136 112.697 34.7811 104.962 29.934C97.227 25.0868 88.3061 22.6631 78.1992 22.6631C68.0408 22.6631 59.0942 25.0868 51.3593 29.934C43.6761 34.7811 37.6945 41.6136 33.4145 50.4313C29.1346 59.249 26.9946 69.4847 26.9946 81.1385C26.9946 92.7924 29.1346 103.028 33.4145 111.846C37.6945 120.664 43.6761 127.496 51.3593 132.343C59.0942 137.19 68.0408 139.614 78.1992 139.614Z" fill="#8FA6F9"/>
</svg>
