<svg width="155" height="217" viewBox="0 0 155 217" fill="none" xmlns="http://www.w3.org/2000/svg">
<path d="M8.19891 216.653C5.5175 216.653 3.48068 215.931 2.08841 214.487C0.696137 213.095 0 211.058 0 208.377V11.1382C0 8.45677 0.696137 6.41998 2.08841 5.02771C3.48068 3.58387 5.5175 2.86194 8.19891 2.86194H15.6244C18.1511 2.86194 20.1106 3.4808 21.5029 4.71838C22.9467 5.90439 23.7717 7.63175 23.978 9.90063L24.9062 24.2875C25.0609 25.9376 25.5508 26.8916 26.3758 27.1494C27.2009 27.3557 28.129 26.8142 29.1603 25.525C34.9357 17.223 42.2322 10.9062 51.05 6.57471C59.8677 2.19163 69.6909 0 80.5197 0C94.5456 0 107.153 3.50648 118.343 10.5194C129.533 17.4808 138.299 27.1494 144.642 39.5251C150.984 51.8493 154.155 65.7204 154.155 81.1385C154.155 96.5567 150.984 110.454 144.642 122.829C138.299 135.154 129.533 144.822 118.343 151.835C107.153 158.796 94.5456 162.277 80.5197 162.277C69.8456 162.277 60.1771 160.111 51.514 155.78C42.9026 151.397 35.6834 145.08 29.8565 136.829C29.2377 136.004 28.6189 135.514 28.0001 135.36C27.4329 135.153 26.943 135.308 26.5305 135.824C26.1696 136.288 25.9891 137.036 25.9891 138.067V208.377C25.9891 211.058 25.2671 213.095 23.8233 214.487C22.431 215.931 20.3942 216.653 17.7128 216.653H8.19891ZM25.525 81.1385C25.525 92.8439 27.6392 103.157 31.8676 112.078C36.0959 120.947 42.026 127.831 49.6577 132.73C57.341 137.577 66.1845 140.001 76.1882 140.001C86.2951 140.001 95.1901 137.577 102.873 132.73C110.557 127.831 116.512 120.947 120.741 112.078C125.021 103.157 127.161 92.8439 127.161 81.1385C127.161 69.4332 125.021 59.1458 120.741 50.2765C116.512 41.3556 110.557 34.4717 102.873 29.6245C95.1901 24.7258 86.2951 22.2764 76.1882 22.2764C66.1845 22.2764 57.341 24.7258 49.6577 29.6245C42.026 34.4717 36.0959 41.3556 31.8676 50.2765C27.6392 59.1458 25.525 69.4332 25.525 81.1385Z" fill="#E8C3F0"/>
</svg>
