<svg width="136" height="160" viewBox="0 0 136 160" fill="none" xmlns="http://www.w3.org/2000/svg">
<path d="M48.1881 85.47C46.177 84.5418 44.6558 83.2527 43.6245 81.6026C42.5932 79.9525 42.0775 77.9672 42.0775 75.6468V32.0222C42.0775 30.6815 42.1807 29.4182 42.3869 28.2322C42.5932 26.9946 42.9026 25.6797 43.3151 24.2874L48.8842 8.12158C49.3999 6.41992 50.2765 5.13079 51.5141 4.25418C52.8032 3.32599 54.376 2.86188 56.2323 2.86188H59.945C61.9561 2.86188 63.5288 3.40332 64.6633 4.48621C65.8493 5.56908 66.4681 7.11604 66.5196 9.12711L67.3705 27.6907C67.422 28.7736 67.6541 29.5729 68.0666 30.0885C68.5307 30.5526 69.0463 30.6557 69.6136 30.3979C70.2324 30.0885 70.8254 29.4697 71.3926 28.5416C77.0132 18.5894 84.1809 11.3444 92.8955 6.80667C101.61 2.26889 111.588 0 122.829 0C124.995 0 126.645 0.0515576 127.78 0.154694C130.409 0.257817 132.369 1.10867 133.658 2.70721C134.999 4.30574 135.669 6.39413 135.669 8.97241V18.0995C135.669 20.8325 134.999 22.8951 133.658 24.2874C132.317 25.6281 130.461 26.1953 128.089 25.9891C125.975 25.7828 123.268 25.6797 119.967 25.6797C112.284 25.6797 105.245 26.711 98.8513 28.7736C92.5087 30.7847 87.0685 33.8786 82.5308 38.0554C77.8899 42.2322 74.3061 47.5435 71.7793 53.9892C69.3042 60.4349 68.0666 67.8088 68.0666 76.1108V83.691C68.0666 86.8365 67.19 88.9765 65.4368 90.1109C63.6835 91.2453 61.3373 91.1422 58.3981 89.8015L48.1881 85.47ZM8.27628 159.415C5.59486 159.415 3.53225 158.719 2.08841 157.327C0.696138 155.883 0 153.82 0 151.139V145.802C0 143.12 0.696138 141.083 2.08841 139.691C3.53225 138.247 5.59486 137.526 8.27628 137.526H38.5969C39.6797 137.526 40.5306 137.216 41.1494 136.597C41.7681 135.979 42.0775 135.128 42.0775 134.045V103.492C42.0775 100.398 42.9542 98.2841 44.7074 97.1496C46.5122 96.0152 48.8842 96.1183 51.8234 97.459L62.0334 101.791C64.0445 102.667 65.5399 103.931 66.5196 105.581C67.551 107.231 68.0666 109.216 68.0666 111.536V134.509C68.0666 135.437 68.3502 136.185 68.9174 136.752C69.4847 137.268 70.2324 137.526 71.1605 137.526H105.426C108.107 137.526 110.144 138.247 111.536 139.691C112.98 141.083 113.702 143.12 113.702 145.802V151.139C113.702 153.82 112.98 155.883 111.536 157.327C110.144 158.719 108.107 159.415 105.426 159.415H8.27628ZM10.1326 24.7515C7.45123 24.7515 5.3886 24.0554 3.94476 22.6631C2.55249 21.2192 1.85635 19.1566 1.85635 16.4752V11.1382C1.85635 8.45677 2.55249 6.41992 3.94476 5.02765C5.3886 3.58381 7.45123 2.86188 10.1326 2.86188H31.7128C33.6208 2.86188 35.1678 3.27441 36.3538 4.09946C37.5913 4.87294 38.3906 5.98161 38.7516 7.42545C39.1641 8.81772 39.0867 10.4162 38.5195 12.221L36.1991 17.9448C35.5287 20.2137 34.3943 21.9154 32.7957 23.0498C31.1972 24.1843 29.2119 24.7515 26.8399 24.7515H10.1326Z" fill="#8FA6F9"/>
</svg>
