<svg width="79" height="273" viewBox="0 0 79 273" fill="none" xmlns="http://www.w3.org/2000/svg">
<path d="M59.713 107.282C57.8566 108.417 56.1807 108.958 54.6853 108.907C53.1899 108.803 52.0039 108.133 51.1273 106.896C50.3023 105.658 49.8897 103.956 49.8897 101.791V83.8457C49.8897 82.7628 49.5803 81.912 48.9616 81.2932C48.3428 80.6744 47.4919 80.3651 46.4091 80.3651H14.0001C11.3187 80.3651 9.28181 79.6689 7.88954 78.2766C6.49727 76.8328 5.80113 74.7702 5.80113 72.0887V66.7517C5.80113 64.0703 6.49727 62.0334 7.88954 60.6412C9.28181 59.1973 11.3187 58.4754 14.0001 58.4754H67.6799C70.3613 58.4754 72.3981 59.1973 73.7904 60.6412C75.1827 62.0334 75.8788 64.0703 75.8788 66.7517V91.9673C75.8788 94.1846 75.4147 96.0667 74.4865 97.6137C73.6099 99.1607 72.1919 100.527 70.2324 101.713L59.713 107.282ZM8.27628 272.266C5.59487 272.266 3.55803 271.545 2.16576 270.101C0.721919 268.708 0 266.672 0 263.99V258.653C0 255.972 0.721919 253.909 2.16576 252.465C3.55803 251.073 5.59487 250.377 8.27628 250.377H39.6024C43.3667 250.377 46.0223 249.5 47.5693 247.747C49.1163 245.994 49.8897 243.029 49.8897 238.852V199.327C49.8897 196.645 50.5859 194.609 51.9781 193.216C53.422 191.824 55.4846 191.128 58.166 191.128H67.6799C70.3613 191.128 72.3981 191.824 73.7904 193.216C75.1827 194.609 75.8788 196.645 75.8788 199.327V242.565C75.8788 252.671 73.4552 260.149 68.6081 264.996C63.8125 269.843 56.6448 272.266 47.1052 272.266H8.27628ZM58.166 181.227C55.4846 181.227 53.422 180.531 51.9781 179.139C50.5859 177.695 49.8897 175.633 49.8897 172.951V130.796C49.8897 128.63 50.3538 126.774 51.282 125.227C52.2102 123.68 53.654 122.288 55.6135 121.05L66.1329 115.481C67.9377 114.347 69.5878 113.831 71.0832 113.934C72.5786 114.037 73.7388 114.734 74.5639 116.023C75.4405 117.312 75.8788 119.039 75.8788 121.205V172.951C75.8788 175.633 75.1827 177.695 73.7904 179.139C72.3981 180.531 70.3613 181.227 67.6799 181.227H58.166ZM55.6135 31.1714C52.9321 31.1714 50.8695 30.4753 49.4256 29.083C48.0334 27.6392 47.3372 25.5766 47.3372 22.8951V8.27631C47.3372 5.59489 48.0334 3.55804 49.4256 2.16577C50.8695 0.721928 52.9321 0 55.6135 0H70.2324C72.9138 0 74.9506 0.721928 76.3429 2.16577C77.7867 3.55804 78.5086 5.59489 78.5086 8.27631V22.8951C78.5086 25.5766 77.7867 27.6392 76.3429 29.083C74.9506 30.4753 72.9138 31.1714 70.2324 31.1714H55.6135Z" fill="#80948C"/>
</svg>
