<svg width="148" height="163" viewBox="0 0 148 163" fill="none" xmlns="http://www.w3.org/2000/svg">
<path d="M140.155 104.266C142.063 104.266 143.662 104.652 144.951 105.426C146.292 106.148 147.168 107.205 147.581 108.597C148.045 109.989 147.967 111.588 147.349 113.393C144.1 123.345 139.047 132.008 132.188 139.382C125.382 146.756 117.234 152.428 107.746 156.398C98.3098 160.317 88.0998 162.277 77.1163 162.277C62.4717 162.277 49.2709 158.796 37.5139 151.835C25.757 144.822 16.5525 135.153 9.90051 122.829C3.30011 110.454 0 96.5566 0 81.1385C0 65.7204 3.30011 51.8492 9.90051 39.525C16.5525 27.1493 25.757 17.4808 37.5139 10.5194C49.2709 3.50648 62.4717 0 77.1163 0C87.9967 0 98.1293 1.95949 107.514 5.87848C116.899 9.7459 125.021 15.315 131.879 22.5858C138.737 29.8565 143.842 38.3648 147.194 48.1107C147.813 49.9671 147.89 51.5914 147.426 52.9836C146.962 54.3759 146.06 55.4588 144.719 56.2323C143.43 56.9542 141.831 57.3152 139.923 57.3152H129.559C127.496 57.3152 125.794 56.8253 124.453 55.8456C123.113 54.8143 121.953 53.2415 120.973 51.1273C118.549 44.991 115.146 39.8086 110.763 35.5803C106.38 31.3003 101.326 28.0775 95.6025 25.9117C89.8788 23.746 83.7167 22.6631 77.1163 22.6631C67.3189 22.6631 58.6301 25.0093 51.0499 29.7018C43.5213 34.3943 37.6171 41.1494 33.3372 49.9671C29.1088 58.7848 26.9945 69.1753 26.9945 81.1385C26.9945 93.1017 29.1088 103.492 33.3372 112.31C37.6171 121.128 43.5213 127.883 51.0499 132.575C58.6301 137.268 67.3189 139.614 77.1163 139.614C83.8199 139.614 90.0592 138.505 95.8346 136.288C101.61 134.071 106.663 130.796 110.995 126.465C115.378 122.082 118.781 116.745 121.205 110.454C122.082 108.339 123.19 106.792 124.531 105.813C125.923 104.781 127.651 104.266 129.713 104.266H140.155Z" fill="#80948C"/>
</svg>
