<svg width="73" height="216" viewBox="0 0 73 216" fill="none" xmlns="http://www.w3.org/2000/svg">
<path d="M52.3649 215.029C49.6835 215.029 47.6208 214.333 46.177 212.94C44.7847 211.496 44.0886 209.434 44.0886 206.752V83.8457C44.0886 82.7628 43.7792 81.912 43.1604 81.2932C42.5416 80.6744 41.6908 80.365 40.6079 80.365H8.19891C5.5175 80.365 3.48071 79.6689 2.08844 78.2766C0.696168 76.8328 0 74.7702 0 72.0887V66.7517C0 64.0703 0.696168 62.0334 2.08844 60.6412C3.48071 59.1973 5.5175 58.4754 8.19891 58.4754H61.8787C64.5601 58.4754 66.597 59.1973 67.9893 60.6412C69.3815 62.0334 70.0777 64.0703 70.0777 66.7517V206.752C70.0777 209.434 69.3815 211.496 67.9893 212.94C66.597 214.333 64.5601 215.029 61.8787 215.029H52.3649ZM49.8124 31.1714C47.131 31.1714 45.0683 30.4753 43.6245 29.083C42.2322 27.6392 41.5361 25.5766 41.5361 22.8951V8.27631C41.5361 5.59489 42.2322 3.55804 43.6245 2.16577C45.0683 0.721928 47.131 0 49.8124 0H64.4313C67.1127 0 69.1495 0.721928 70.5417 2.16577C71.9856 3.55804 72.7075 5.59489 72.7075 8.27631V22.8951C72.7075 25.5766 71.9856 27.6392 70.5417 29.083C69.1495 30.4753 67.1127 31.1714 64.4313 31.1714H49.8124Z" fill="#8FA6F9"/>
</svg>
