<svg width="138" height="160" viewBox="0 0 138 160" fill="none" xmlns="http://www.w3.org/2000/svg">
<path d="M1.31492 85.1606C0.850834 84.9544 0.515658 84.6966 0.309395 84.3872C0.103132 84.0778 0 83.691 0 83.2269V11.1382C0 8.45677 0.696137 6.41998 2.08841 5.02771C3.48068 3.58387 5.51752 2.86194 8.19893 2.86194H16.2432C18.8215 2.86194 20.8325 3.53234 22.2763 4.87305C23.7202 6.16219 24.4937 8.04426 24.5968 10.5194L25.3703 24.0554C25.4218 25.1383 25.6539 25.9118 26.0664 26.3759C26.5305 26.8399 27.072 26.9688 27.6907 26.7626C28.3611 26.5047 28.9799 25.9375 29.5471 25.0609C35.2709 16.6042 42.3354 10.3132 50.7406 6.18799C59.1973 2.06274 68.7885 0 79.5142 0C80.0298 0 80.4166 0 80.6744 0C80.9322 0 81.319 0 81.8346 0C83.5879 0 85.0059 0.386789 86.0888 1.16028C87.1717 1.93376 87.842 3.01667 88.0999 4.40894C88.4093 5.80121 88.3319 7.37396 87.8678 9.1272L84.5418 17.4034C84.0777 18.9504 83.5363 20.188 82.9175 21.1162C82.2987 21.9928 81.551 22.5858 80.6744 22.8951C79.7978 23.153 78.7149 23.2046 77.4258 23.0499C76.2398 22.9468 75.26 22.8694 74.4865 22.8179C73.7131 22.7663 72.7333 22.7405 71.5473 22.7405C62.5233 22.7405 54.5564 24.7774 47.6466 28.8511C40.7884 32.9248 35.4514 38.9064 31.6355 46.7959C27.8712 54.6339 25.9891 64.0961 25.9891 75.1827V92.9729C25.9891 93.2307 25.9375 93.437 25.8344 93.5917C25.7312 93.7464 25.5508 93.8237 25.2929 93.8237C25.0867 93.8237 24.8288 93.7464 24.5194 93.5917L1.31492 85.1606ZM8.19893 159.415C5.51752 159.415 3.48068 158.719 2.08841 157.327C0.696137 155.883 0 153.82 0 151.139V83.2269C0 82.7628 0.103132 82.4792 0.309395 82.3761C0.515658 82.2214 0.850834 82.2472 1.31492 82.4535L24.5194 90.9618C25.0351 91.1165 25.3961 91.3743 25.6023 91.7352C25.8602 92.0962 25.9891 92.5088 25.9891 92.9729V151.139C25.9891 153.82 25.2671 155.883 23.8233 157.327C22.431 158.719 20.3942 159.415 17.7128 159.415H8.19893ZM119.271 159.415C116.59 159.415 114.553 158.719 113.161 157.327C111.768 155.883 111.072 153.82 111.072 151.139V139.227C111.072 136.752 111.691 134.741 112.929 133.194C114.218 131.647 116.074 130.667 118.498 130.255L128.166 129.017C130.848 128.502 132.988 128.94 134.586 130.332C136.236 131.673 137.061 133.735 137.061 136.52V151.139C137.061 153.82 136.339 155.883 134.896 157.327C133.503 158.719 131.467 159.415 128.785 159.415H119.271ZM119.89 120.122C117.209 120.638 115.069 120.225 113.47 118.885C111.872 117.492 111.072 115.404 111.072 112.619V68.8402C111.072 60.0225 109.654 52.5712 106.818 46.4865C103.982 40.3501 99.8826 35.8124 94.5198 32.8732C93.6432 31.8419 92.947 30.8363 92.4314 29.8566C91.9157 28.8768 91.6063 27.8197 91.5032 26.6853C91.4516 25.5509 91.6321 24.3132 92.0446 22.9725L96.9949 10.8289C97.5106 9.12719 98.2583 7.81221 99.238 6.88403C100.269 5.90429 101.455 5.3629 102.796 5.25977C104.137 5.15664 105.555 5.5176 107.05 6.34265C113.341 9.28189 118.73 13.4587 123.216 18.873C127.702 24.2359 131.131 30.7847 133.503 38.5195C135.875 46.2028 137.061 54.8401 137.061 64.4313V109.912C137.061 112.387 136.417 114.398 135.128 115.945C133.839 117.492 132.008 118.472 129.636 118.885L119.89 120.122Z" fill="#E8C3F0"/>
</svg>
