<svg width="152" height="163" viewBox="0 0 152 163" fill="none" xmlns="http://www.w3.org/2000/svg">
<path d="M142.012 107.36C143.868 107.36 145.415 107.721 146.653 108.443C147.89 109.113 148.715 110.118 149.128 111.459C149.54 112.8 149.437 114.347 148.818 116.1C145.828 125.124 140.877 133.142 133.967 140.155C127.058 147.168 118.781 152.609 109.139 156.476C99.4959 160.343 89.2085 162.277 78.2766 162.277C63.3741 162.277 49.9671 158.796 38.0555 151.835C26.1438 144.822 16.8104 135.154 10.0553 122.829C3.35177 110.505 0 96.6082 0 81.1385C0 65.6689 3.326 51.7719 9.97797 39.4478C16.6299 27.1236 25.8344 17.4808 37.5914 10.5194C49.3999 3.50648 62.678 0 77.4258 0C91.6579 0 104.42 3.2487 115.713 9.74597C127.006 16.2432 135.85 25.3704 142.244 37.1273C148.638 48.8327 151.835 62.2398 151.835 77.3485V78.4314C151.835 80.9581 151.139 82.9175 149.747 84.3098C148.406 85.6505 146.472 86.3209 143.945 86.3209H30.3979C29.3151 86.3209 28.4642 86.6561 27.8455 87.3264C27.2267 87.9452 26.9947 88.796 27.1494 89.8789C28.0775 100.14 30.7589 109.087 35.1935 116.719C39.6282 124.299 45.5325 130.152 52.9064 134.277C60.2803 138.402 68.737 140.465 78.2766 140.465C85.3411 140.465 91.89 139.356 97.9232 137.139C103.956 134.921 109.139 131.776 113.47 127.702C117.802 123.629 121.05 118.91 123.216 113.547C124.196 111.433 125.382 109.886 126.774 108.907C128.218 107.875 130.023 107.36 132.188 107.36H142.012ZM28.3869 63.8125C28.0259 64.9985 28.1548 65.9525 28.7736 66.6744C29.3924 67.3964 30.2948 67.7573 31.4808 67.7573H121.205C122.339 67.7573 123.242 67.3964 123.912 66.6744C124.583 65.9525 124.815 65.0243 124.608 63.8899C123.371 55.4331 120.638 48.0335 116.409 41.6909C112.233 35.3483 106.792 30.4495 100.089 26.9946C93.4369 23.4882 85.8825 21.735 77.4258 21.735C68.969 21.735 61.3373 23.4366 54.5306 26.84C47.7755 30.2433 42.1549 35.1163 37.6687 41.4589C33.2341 47.7499 30.1401 55.201 28.3869 63.8125Z" fill="#E8C3F0"/>
</svg>
