<svg width="118" height="220" viewBox="0 0 118 220" fill="none" xmlns="http://www.w3.org/2000/svg">
<path d="M8.27625 219.669C5.59483 219.669 3.53222 218.973 2.08838 217.581C0.696107 216.137 0 214.075 0 211.393V206.056C0 203.375 0.696107 201.338 2.08838 199.946C3.53222 198.502 5.59483 197.78 8.27625 197.78H42.4642C43.5471 197.78 44.3979 197.47 45.0167 196.852C45.6871 196.233 46.0223 195.382 46.0223 194.299V143.945C46.0223 141.728 46.4606 139.846 47.3372 138.299C48.2138 136.7 49.5803 135.36 51.4366 134.277L62.1108 128.708C64.0703 127.522 65.7719 126.903 67.2158 126.851C68.7112 126.8 69.8714 127.393 70.6964 128.63C71.573 129.816 72.0114 131.673 72.0114 134.199V194.299C72.0114 195.382 72.3207 196.233 72.9395 196.852C73.5583 197.47 74.4091 197.78 75.492 197.78H109.757C112.439 197.78 114.476 198.502 115.868 199.946C117.26 201.338 117.956 203.375 117.956 206.056V211.393C117.956 214.075 117.26 216.137 115.868 217.581C114.476 218.973 112.439 219.669 109.757 219.669H8.27625ZM55.9229 119.039C54.1696 120.174 52.5196 120.715 50.9726 120.664C49.4772 120.56 48.2654 119.89 47.3372 118.652C46.4606 117.415 46.0223 115.713 46.0223 113.547V26.9172C46.0223 24.9577 46.0996 23.2561 46.2543 21.8123C46.4606 20.3684 46.7442 18.873 47.1052 17.326L49.8897 7.42542C50.5601 4.95027 51.6429 3.09391 53.1383 1.85632C54.6853 0.618752 56.5932 0 58.8621 0H63.735C66.4165 0 68.4533 0.721867 69.8456 2.16571C71.2894 3.55798 72.0114 5.59483 72.0114 8.27625V103.724C72.0114 105.942 71.5473 107.849 70.6191 109.448C69.7425 111.047 68.376 112.387 66.5196 113.47L55.9229 119.039ZM10.1326 21.8896C7.45122 21.8896 5.3886 21.1934 3.94476 19.8011C2.55249 18.3573 1.85632 16.2947 1.85632 13.6133V8.27625C1.85632 5.59483 2.55249 3.55798 3.94476 2.16571C5.3886 0.721867 7.45122 0 10.1326 0H32.2543C35.0904 0 37.2045 0.824995 38.5968 2.4751C40.0406 4.1252 40.4016 6.29101 39.6797 8.97241L38.1328 14.4641C37.514 17.0424 36.4311 18.9245 34.8841 20.1105C33.3887 21.2965 31.4808 21.8896 29.1603 21.8896H10.1326Z" fill="#80948C"/>
</svg>
