<svg width="155" height="220" viewBox="0 0 155 220" fill="none" xmlns="http://www.w3.org/2000/svg">
<path d="M121.437 187.647C119.942 186.049 119.117 184.347 118.962 182.542C118.859 180.789 119.374 178.778 120.509 176.509C123.087 172.384 125.047 167.666 126.387 162.354C127.728 157.043 128.398 151.216 128.398 144.874V132.575C128.398 130.977 127.986 130.023 127.161 129.713C126.387 129.404 125.485 129.945 124.454 131.338C118.627 139.485 111.382 145.699 102.719 149.979C94.1072 154.207 84.4129 156.321 73.6357 156.321C59.5583 156.321 46.9247 152.969 35.735 146.266C24.5452 139.511 15.7791 130.229 9.43652 118.42C3.14552 106.56 0 93.2306 0 78.4313C0 78.0188 0.103125 77.7094 0.309387 77.5031C0.567216 77.2453 0.902416 77.1164 1.31494 77.1164H25.6797C26.0922 77.1164 26.4016 77.2453 26.6078 77.5031C26.8657 77.7094 26.9946 78.0188 26.9946 78.4313C26.9946 89.3632 29.1346 99.0833 33.4146 107.592C37.6945 116.1 43.6761 122.752 51.3594 127.548C59.0942 132.292 68.015 134.664 78.1219 134.664C86.9396 134.664 94.8808 132.781 101.945 129.017C109.01 125.253 114.785 119.993 119.271 113.238C123.809 106.483 126.697 98.6966 127.934 89.8789C128.45 87.6616 129.223 85.831 130.255 84.3871C131.286 82.8917 132.73 81.6799 134.586 80.7517L144.487 75.4921C146.343 74.5123 148.019 74.0998 149.515 74.2545C151.061 74.4092 152.247 75.1053 153.073 76.3429C153.949 77.5805 154.387 79.2564 154.387 81.3705V144.487C154.387 154.748 153.073 164.082 150.443 172.487C147.813 180.944 143.971 188.343 138.918 194.686C137.835 196.078 136.649 196.981 135.36 197.393C134.122 197.806 132.833 197.728 131.492 197.161C130.152 196.645 128.862 195.743 127.625 194.454L121.437 187.647ZM78.9727 219.515C66.4423 219.515 54.9689 217.581 44.5527 213.714C34.188 209.898 25.5766 204.458 18.7183 197.393C11.9117 190.38 7.42546 182.259 5.2597 173.028C4.74405 171.275 4.74405 169.728 5.2597 168.388C5.82693 167.047 6.75511 166.015 8.04425 165.294C9.33339 164.623 10.9061 164.288 12.7625 164.288H23.5139C25.5765 164.288 27.2009 164.752 28.3869 165.68C29.5729 166.66 30.6558 168.259 31.6355 170.476C33.3887 175.839 36.4827 180.583 40.9173 184.708C45.3519 188.833 50.8437 192.03 57.3925 194.299C63.9929 196.568 71.1863 197.703 78.9727 197.703C83.7168 197.703 88.0998 197.238 92.1219 196.31C96.1441 195.434 99.8826 194.093 103.338 192.288C105.503 191.412 107.463 191.102 109.216 191.36C111.021 191.618 112.619 192.598 114.012 194.299L119.194 200.023C120.431 201.467 121.205 202.885 121.514 204.277C121.824 205.721 121.643 207.036 120.973 208.222C120.303 209.408 119.117 210.388 117.415 211.161C112.052 213.894 106.148 215.957 99.7021 217.349C93.308 218.793 86.3982 219.515 78.9727 219.515ZM1.31494 79.8236C0.902416 79.8236 0.567216 79.7205 0.309387 79.5142C0.103125 79.2564 0 78.8954 0 78.4313C0 63.6835 3.17128 50.328 9.51385 38.3648C15.908 26.4016 24.6999 17.0167 35.8896 10.21C47.131 3.40333 59.7646 0 73.7904 0C84.5161 0 94.2877 2.13997 103.105 6.41992C111.923 10.6999 119.271 16.9135 125.15 25.0609C126.181 26.4016 127.135 26.943 128.012 26.6852C128.888 26.4274 129.352 25.4992 129.404 23.9007L130.255 10.6741C130.306 8.19892 131.08 6.29099 132.575 4.95029C134.071 3.55801 136.107 2.86188 138.686 2.86188H146.111C148.793 2.86188 150.829 3.58381 152.222 5.02765C153.666 6.41992 154.387 8.45677 154.387 11.1382V52.1328C154.387 54.4017 153.898 56.3612 152.918 58.0113C151.938 59.6099 150.494 60.9248 148.586 61.9561L137.216 68.0666C134.741 69.4073 132.627 69.6136 130.874 68.6854C129.12 67.7572 127.805 65.8235 126.929 62.8843C125.227 54.7885 122.107 47.6982 117.57 41.6134C113.083 35.4771 107.463 30.7331 100.708 27.3813C93.9526 23.978 86.424 22.2763 78.1219 22.2763C68.015 22.2763 59.0942 24.6484 51.3594 29.3924C43.6245 34.1364 37.6171 40.7884 33.3372 49.3483C29.1088 57.8566 26.9946 67.551 26.9946 78.4313C26.9946 78.8954 26.8657 79.2564 26.6078 79.5142C26.4016 79.7205 26.0922 79.8236 25.6797 79.8236H1.31494Z" fill="#8FA6F9"/>
</svg>
