<svg width="101" height="22" viewBox="0 0 101 22" fill="none" xmlns="http://www.w3.org/2000/svg">
<path d="M27.5361 16.3979C26.5048 18.2543 25.3445 19.6465 24.0554 20.5747C22.7662 21.4513 21.1419 21.8896 19.1824 21.8896H8.19897C5.51756 21.8896 3.48071 21.1935 2.08844 19.8012C0.696169 18.3574 0 16.2948 0 13.6133V8.27631C0 5.5949 0.696169 3.55805 2.08844 2.16577C3.48071 0.721934 5.51756 0 8.19897 0H25.6797C27.4329 0 28.8768 0.360964 30.0112 1.08289C31.1457 1.8048 31.816 2.83611 32.0223 4.17682C32.2801 5.46596 31.9707 6.93559 31.0941 8.58569L27.5361 16.3979ZM42.387 5.49176C43.3667 3.53226 44.5011 2.13999 45.7903 1.31494C47.0794 0.438322 48.7295 0 50.7406 0H92.3541C95.0355 0 97.0723 0.721934 98.4645 2.16577C99.9084 3.55805 100.63 5.5949 100.63 8.27631V13.6133C100.63 16.2948 99.9084 18.3574 98.4645 19.8012C97.0723 21.1935 95.0355 21.8896 92.3541 21.8896H44.2433C42.4385 21.8896 40.9689 21.5286 39.8345 20.8067C38.7 20.0332 38.0039 19.0019 37.746 17.7128C37.5398 16.4236 37.875 14.9541 38.7516 13.304L42.387 5.49176Z" fill="#80948C"/>
</svg>
