<svg width="73" height="216" viewBox="0 0 73 216" fill="none" xmlns="http://www.w3.org/2000/svg">
<path d="M52.3649 215.029C49.6835 215.029 47.6208 214.332 46.177 212.94C44.7847 211.496 44.0886 209.434 44.0886 206.752V83.8456C44.0886 82.7627 43.7792 81.9119 43.1604 81.2931C42.5416 80.6743 41.6908 80.365 40.6079 80.365H8.19891C5.5175 80.365 3.48071 79.6688 2.08844 78.2765C0.696168 76.8327 0 74.77 0 72.0886V66.7516C0 64.0702 0.696168 62.0334 2.08844 60.6411C3.48071 59.1973 5.5175 58.4753 8.19891 58.4753H61.8787C64.5601 58.4753 66.597 59.1973 67.9893 60.6411C69.3815 62.0334 70.0777 64.0702 70.0777 66.7516V206.752C70.0777 209.434 69.3815 211.496 67.9893 212.94C66.597 214.332 64.5601 215.029 61.8787 215.029H52.3649ZM49.8124 31.1714C47.131 31.1714 45.0683 30.4753 43.6245 29.083C42.2322 27.6392 41.5361 25.5764 41.5361 22.895V8.27625C41.5361 5.59483 42.2322 3.55792 43.6245 2.16565C45.0683 0.721806 47.131 0 49.8124 0H64.4313C67.1127 0 69.1495 0.721806 70.5417 2.16565C71.9856 3.55792 72.7075 5.59483 72.7075 8.27625V22.895C72.7075 25.5764 71.9856 27.6392 70.5417 29.083C69.1495 30.4753 67.1127 31.1714 64.4313 31.1714H49.8124Z" fill="#FFA18C"/>
</svg>
