<svg width="160" height="163" viewBox="0 0 160 163" fill="none" xmlns="http://www.w3.org/2000/svg">
<path d="M52.4423 162.277C49.503 162.277 46.5895 162.071 43.7018 161.658C40.8142 161.297 38.0039 160.756 35.2709 160.034C33.7239 159.621 32.5637 158.951 31.7902 158.023C31.0683 157.095 30.7331 155.986 30.7847 154.697C30.8878 153.408 31.4035 152.016 32.3317 150.52L36.9725 143.868C38.107 142.063 39.3188 140.929 40.6079 140.465C41.8971 139.949 43.4698 139.898 45.3262 140.31C47.0278 140.826 48.6522 141.238 50.1992 141.548C52.829 141.96 55.6393 142.167 58.6301 142.167C66.8806 142.167 74.8475 140.31 82.5308 136.597C90.214 132.885 96.4792 127.444 101.326 120.277C106.225 113.058 108.675 104.472 108.675 94.5198V88.4867C108.675 88.2804 108.675 88.1515 108.675 88.1C108.675 87.9968 108.675 87.8421 108.675 87.6359C108.778 86.192 109.113 84.9286 109.68 83.8457C110.247 82.7113 111.072 81.7831 112.155 81.0612C113.29 80.2877 114.682 79.7978 116.332 79.5916L125.382 78.4314C128.115 78.0189 130.281 78.4829 131.879 79.8236C133.478 81.1643 134.277 83.2269 134.277 86.0115V127.316C134.277 131.286 134.999 134.122 136.443 135.824C137.938 137.526 140.413 138.376 143.868 138.376H151.758C154.284 138.376 156.218 139.047 157.559 140.387C158.951 141.728 159.647 143.662 159.647 146.189V151.139C159.647 153.82 158.925 155.883 157.481 157.327C156.089 158.719 154.052 159.415 151.371 159.415H137.216C129.223 159.415 123.113 157.636 118.885 154.078C114.708 150.469 112.155 145.054 111.227 137.835L111.072 136.829C110.969 136.108 110.763 135.515 110.454 135.05C110.144 134.586 109.732 134.354 109.216 134.354C108.803 134.354 108.365 134.509 107.901 134.818C107.489 135.128 107.024 135.618 106.509 136.288C100.424 144.899 92.7408 151.397 83.459 155.78C74.1772 160.111 63.8383 162.277 52.4423 162.277ZM13.3813 148.896C9.04977 144.874 5.72377 140.155 3.40332 134.741C1.13443 129.327 0 123.422 0 117.028C0 104.343 4.43467 94.1847 13.304 86.553C22.2248 78.9213 35.4256 74.1515 52.9063 72.2435L93.5142 67.7573C96.1441 67.4995 98.2325 68.0409 99.7795 69.3816C101.326 70.6707 102.152 72.7075 102.255 75.4921L102.409 77.4258C102.512 79.8494 101.894 81.8347 100.553 83.3817C99.2123 84.9287 97.2528 85.8569 94.6745 86.1663L58.9395 90.1884C51.2562 91.065 44.9652 92.5345 40.0665 94.5972C35.1677 96.6598 31.5066 99.4443 29.083 102.951C26.711 106.406 25.525 110.711 25.525 115.868C25.5765 118.395 25.9375 120.767 26.6078 122.984C27.2782 124.944 28.2064 126.955 29.3924 129.017C30.2174 130.719 30.63 132.292 30.63 133.735C30.63 135.128 30.1401 136.649 29.1603 138.299L23.2045 146.807C21.9154 148.922 20.3684 150.185 18.5636 150.597C16.8104 151.01 15.083 150.443 13.3813 148.896ZM15.315 51.1273C13.5102 51.1273 11.9632 50.7663 10.6741 50.0444C9.38493 49.3225 8.48258 48.2913 7.96692 46.9506C7.50283 45.5583 7.477 43.9597 7.88953 42.1549C9.84902 33.8013 13.7422 26.4532 19.5692 20.1106C25.3961 13.7165 32.7699 8.76623 41.6908 5.25977C50.6116 1.75331 60.5381 0 71.47 0C71.8825 0 72.2176 0.154715 72.4755 0.464111C72.7333 0.721933 72.8364 1.0829 72.7849 1.547L72.0887 20.188C72.0887 20.6005 71.9598 20.9357 71.702 21.1935C71.4957 21.3997 71.1606 21.5029 70.6965 21.5029C64.5086 21.5029 58.8364 22.4569 53.6798 24.3649C48.5748 26.2212 44.2691 28.8768 40.7626 32.3317C37.2562 35.7866 34.7552 39.8603 33.2598 44.5527C32.2801 46.8732 31.0941 48.5491 29.7018 49.5804C28.3095 50.6118 26.5821 51.1273 24.5195 51.1273H15.315ZM117.57 70.0004C114.785 70.4645 112.594 70.0261 110.995 68.6854C109.448 67.2932 108.675 65.179 108.675 62.3429V53.9119C108.675 47.363 107.128 41.665 104.034 36.8179C100.991 31.9191 96.6082 28.1549 90.8844 25.525C85.2122 22.8436 78.5086 21.5029 70.7738 21.5029C70.7738 21.5029 70.748 21.5029 70.6965 21.5029C70.3871 21.5029 70.1292 21.4514 69.923 21.3483C69.7683 21.1936 69.6394 21.013 69.5363 20.8068C69.4331 20.6005 69.3815 20.3169 69.3815 19.9559L70.0777 1.31494C70.0777 1.05712 70.1292 0.825169 70.2324 0.618896C70.3355 0.412637 70.4902 0.257909 70.6965 0.154785C70.9543 0.0516491 71.2121 0 71.47 0C71.5215 0 71.5473 0 71.5473 0C84.0777 0 95.087 2.1658 104.575 6.49731C114.063 10.8288 121.385 16.9651 126.542 24.9062C131.699 32.7958 134.277 41.9229 134.277 52.2876V59.7904C134.277 62.3171 133.632 64.3539 132.343 65.9009C131.054 67.4479 129.172 68.4019 126.697 68.7628L117.57 70.0004Z" fill="#FFA18C"/>
</svg>
