<svg width="160" height="163" viewBox="0 0 160 163" fill="none" xmlns="http://www.w3.org/2000/svg">
<path d="M134.277 127.315C134.277 131.286 134.999 134.122 136.443 135.824C137.938 137.526 140.413 138.376 143.868 138.376H151.758C154.284 138.376 156.218 139.047 157.559 140.387C158.951 141.728 159.647 143.662 159.647 146.189V151.139C159.647 153.82 158.925 155.883 157.481 157.327C156.089 158.719 154.052 159.415 151.371 159.415H137.216C129.275 159.415 123.19 157.636 118.962 154.078C114.785 150.468 112.207 145.054 111.227 137.835L111.072 135.979C110.969 135.205 110.763 134.638 110.454 134.277C110.144 133.916 109.732 133.735 109.216 133.735C108.803 133.735 108.314 133.967 107.746 134.432C107.231 134.844 106.406 135.824 105.271 137.371C99.2896 145.415 91.7868 151.577 82.7628 155.857C73.7388 160.137 63.632 162.277 52.4422 162.277C42.026 162.277 32.8473 160.395 24.9062 156.631C16.9651 152.815 10.8288 147.478 6.49728 140.619C2.16577 133.761 0 125.897 0 117.028C0 104.343 4.43464 94.2104 13.3039 86.6302C22.1732 78.9985 35.374 74.2029 52.9063 72.2434L105.503 66.2876C106.638 66.1329 107.437 65.7462 107.901 65.1274C108.417 64.5086 108.675 63.7351 108.675 62.8069V53.9119C108.675 47.363 107.128 41.665 104.034 36.8179C100.991 31.9191 96.6082 28.1548 90.8844 25.525C85.1606 22.8435 78.4313 21.5029 70.6965 21.5029C64.5086 21.5029 58.8364 22.4568 53.6798 24.3647C48.5748 26.2211 44.2691 28.8768 40.7626 32.3317C37.2562 35.7866 34.7552 39.8602 33.2598 44.5527C32.2801 46.8731 31.0941 48.549 29.7018 49.5803C28.3095 50.6116 26.5821 51.1273 24.5195 51.1273H15.315C13.5102 51.1273 11.9632 50.7663 10.6741 50.0444C9.38496 49.3225 8.48254 48.2912 7.96689 46.9505C7.45123 45.6098 7.42547 44.0113 7.88956 42.1549C9.84905 33.8013 13.7422 26.4532 19.5692 20.1106C25.3961 13.7165 32.7699 8.76617 41.6908 5.2597C50.6116 1.75325 60.538 0 71.4699 0C84.052 0 95.087 2.16574 104.575 6.49725C114.063 10.8288 121.385 16.9651 126.542 24.9062C131.699 32.7957 134.277 41.9228 134.277 52.2875V127.315ZM25.525 115.868C25.525 121.385 26.8657 126.129 29.5471 130.1C32.2285 134.019 36.0186 137.01 40.9173 139.072C45.8161 141.135 51.4883 142.166 57.934 142.166C66.4939 142.166 74.6412 140.284 82.3761 136.52C90.1625 132.756 96.4793 127.212 101.326 119.89C106.225 112.516 108.675 103.75 108.675 93.5916V88.1772C108.675 86.8365 108.391 85.9083 107.824 85.3926C107.308 84.877 106.38 84.6965 105.039 84.8512L58.9395 90.1882C51.1531 91.1164 44.8105 92.6376 39.9118 94.7518C35.0131 96.866 31.3777 99.6506 29.0057 103.105C26.6852 106.56 25.525 110.814 25.525 115.868Z" fill="#80948C"/>
</svg>
