<svg width="136" height="160" viewBox="0 0 136 160" fill="none" xmlns="http://www.w3.org/2000/svg">
<path d="M119.967 25.6797C109.603 25.6797 100.527 27.536 92.7407 31.2488C85.0059 34.9099 78.9469 40.5821 74.5638 48.2654C70.2323 55.9487 68.0666 65.5915 68.0666 77.1937V134.045C68.0666 135.128 68.376 135.979 68.9948 136.597C69.6651 137.216 70.5418 137.525 71.6246 137.525H105.426C108.107 137.525 110.144 138.247 111.536 139.691C112.98 141.084 113.702 143.12 113.702 145.802V151.139C113.702 153.82 112.98 155.883 111.536 157.327C110.144 158.719 108.107 159.415 105.426 159.415H8.27625C5.59483 159.415 3.53222 158.719 2.08838 157.327C0.696108 155.883 0 153.82 0 151.139V145.802C0 143.12 0.696108 141.084 2.08838 139.691C3.53222 138.247 5.59483 137.525 8.27625 137.525H38.5969C39.6797 137.525 40.5306 137.216 41.1494 136.597C41.7681 135.979 42.0775 135.128 42.0775 134.045V28.2322C42.0775 27.1493 41.7681 26.2985 41.1494 25.6797C40.5306 25.0609 39.6797 24.7515 38.5969 24.7515H10.1326C7.45122 24.7515 5.3886 24.0554 3.94476 22.6631C2.55249 21.2192 1.85632 19.1566 1.85632 16.4752V11.1382C1.85632 8.45676 2.55249 6.41992 3.94476 5.02765C5.3886 3.58381 7.45122 2.86189 10.1326 2.86189H58.0886C60.6153 2.86189 62.6264 3.53224 64.1218 4.87295C65.6688 6.21365 66.5454 8.14736 66.7516 10.6741L67.6025 26.9173C67.6025 27.9486 67.8346 28.6963 68.2986 29.1604C68.7627 29.6244 69.3042 29.7276 69.923 29.4698C70.5418 29.2119 71.1347 28.5931 71.702 27.6134C77.3742 17.9706 84.5676 10.9577 93.2822 6.57462C102.048 2.19154 112.078 0 123.371 0C126.31 0 128.656 0.257828 130.409 0.773483C132.163 1.28914 133.478 2.21732 134.354 3.55803C135.231 4.84717 135.669 6.65196 135.669 8.97242V18.0995C135.669 20.8325 134.844 22.9209 133.194 24.3648C131.595 25.757 129.455 26.2985 126.774 25.9891C125.124 25.7828 122.855 25.6797 119.967 25.6797Z" fill="#FFA18C"/>
</svg>
