<svg width="155" height="220" viewBox="0 0 155 220" fill="none" xmlns="http://www.w3.org/2000/svg">
<path d="M78.9727 219.515C66.4423 219.515 54.9689 217.581 44.5527 213.714C34.188 209.898 25.5765 204.458 18.7183 197.393C11.9117 190.38 7.42546 182.259 5.2597 173.028C4.79561 171.275 4.82138 169.728 5.33704 168.388C5.85269 167.047 6.75511 166.015 8.04425 165.294C9.38496 164.623 10.9577 164.288 12.7625 164.288H23.5139C25.5765 164.288 27.2008 164.752 28.3868 165.68C29.5728 166.66 30.6557 168.259 31.6355 170.476C33.3887 175.839 36.4827 180.583 40.9173 184.708C45.4035 188.833 50.9211 192.03 57.4699 194.299C64.0187 196.568 71.1863 197.703 78.9727 197.703C89.4405 197.703 98.3614 195.64 105.735 191.515C113.109 187.389 118.73 181.382 122.597 173.492C126.465 165.603 128.398 156.063 128.398 144.874V132.575C128.398 131.544 128.192 130.77 127.78 130.255C127.419 129.739 126.929 129.584 126.31 129.791C125.743 129.945 125.124 130.461 124.454 131.338C118.627 139.485 111.382 145.699 102.719 149.979C94.1072 154.207 84.4129 156.321 73.6357 156.321C59.5583 156.321 46.9247 152.969 35.735 146.266C24.5452 139.511 15.7791 130.229 9.43652 118.42C3.14552 106.56 0 93.2306 0 78.4313C0 63.6835 3.17128 50.328 9.51385 38.3648C15.908 26.4016 24.6999 17.0167 35.8896 10.21C47.131 3.40333 59.7903 0 73.8677 0C84.5418 0 94.2877 2.13997 103.105 6.41992C111.923 10.6999 119.297 16.9135 125.227 25.0609C126.258 26.4016 127.161 26.9688 127.934 26.7626C128.759 26.5047 129.249 25.5508 129.404 23.9007L130.255 10.6741C130.461 8.14736 131.286 6.21366 132.73 4.87296C134.174 3.53225 136.159 2.86188 138.686 2.86188H146.111C148.793 2.86188 150.829 3.58381 152.222 5.02765C153.666 6.41992 154.387 8.45677 154.387 11.1382V144.487C154.387 160.111 151.397 173.544 145.415 184.785C139.485 196.078 130.848 204.69 119.503 210.62C108.21 216.55 94.7002 219.515 78.9727 219.515ZM26.9946 78.4313C26.9946 89.3632 29.1346 99.0833 33.4146 107.592C37.6945 116.1 43.7019 122.752 51.4367 127.548C59.1716 132.292 68.0924 134.664 78.1993 134.664C88.203 134.664 97.0465 132.266 104.73 127.47C112.413 122.675 118.369 116.048 122.597 107.592C126.877 99.0833 129.017 89.3632 129.017 78.4313C129.017 67.551 126.877 57.8566 122.597 49.3483C118.369 40.84 112.413 34.2138 104.73 29.4698C97.0465 24.6742 88.203 22.2763 78.1993 22.2763C68.0924 22.2763 59.1716 24.6742 51.4367 29.4698C43.7019 34.2138 37.6945 40.84 33.4146 49.3483C29.1346 57.8566 26.9946 67.551 26.9946 78.4313Z" fill="#8FA6F9"/>
</svg>
