<svg width="311" height="63" viewBox="0 0 311 63" fill="none" xmlns="http://www.w3.org/2000/svg">
<path d="M221.435 15.811C221.034 15.7816 220.588 15.7653 220.096 15.7653C216.941 15.7653 214.139 16.4203 211.682 17.7303C209.228 19.0403 207.211 21.103 205.634 23.9185C205.471 24.2313 205.298 24.4236 205.119 24.4985C204.94 24.5735 204.783 24.5441 204.65 24.4105C204.529 24.2606 204.464 24.0228 204.448 23.6969L204.203 18.6232C204.187 17.9812 204.001 17.4989 203.646 17.1698C203.287 16.8277 202.792 16.6549 202.15 16.6549H187.356C186.509 16.6549 185.86 16.8798 185.414 17.3262C184.967 17.7727 184.746 18.4211 184.746 19.2716V21.2594C184.746 22.1099 184.967 22.7649 185.414 23.2244C185.86 23.6708 186.509 23.8957 187.356 23.8957H195.991V53.6601C195.991 54.0023 195.894 54.263 195.701 54.4422C195.522 54.6214 195.261 54.7094 194.919 54.7094H186.818C185.971 54.7094 185.323 54.9343 184.876 55.3807C184.43 55.8271 184.208 56.4821 184.208 57.3457V59.3335C184.208 60.184 184.43 60.8292 184.876 61.2789C185.323 61.7253 185.968 61.9501 186.818 61.9501H214.914C215.762 61.9501 216.41 61.7253 216.856 61.2789C217.319 60.8324 217.547 60.184 217.547 59.3335V57.3457C217.547 56.4821 217.316 55.8271 216.856 55.3807C216.41 54.9343 215.762 54.7094 214.914 54.7094H205.764C205.422 54.7094 205.155 54.6214 204.959 54.4422C204.78 54.263 204.692 54.0023 204.692 53.6601V38.5107C204.692 36.083 205.034 33.9681 205.718 32.1661C206.403 30.3478 207.384 28.8586 208.664 27.6985C209.929 26.5515 211.447 25.701 213.217 25.1502C215.002 24.5832 216.987 24.2997 219.173 24.2997C220.05 24.2997 220.868 24.3291 221.627 24.3877C222.341 24.4627 222.898 24.2834 223.302 23.85C223.703 23.4166 223.905 22.7617 223.905 21.8851V18.6232C223.905 17.789 223.696 17.1275 223.279 16.6354C222.862 16.1303 222.246 15.8533 221.428 15.8077L221.435 15.811ZM260.464 54.716H249.841C248.785 54.716 248.042 54.4715 247.608 53.9795C247.178 53.4744 246.96 52.6402 246.96 51.4769V24.9515C246.96 24.6223 247.048 24.3714 247.227 24.1922C247.419 23.9999 247.68 23.9022 248.009 23.9022H259.568C260.415 23.9022 261.063 23.6773 261.51 23.2309C261.956 22.7682 262.178 22.1132 262.178 21.2659V19.2782C262.178 18.4277 261.956 17.7824 261.51 17.3327C261.063 16.8863 260.418 16.6615 259.568 16.6615H248.009C247.683 16.6615 247.423 16.5735 247.227 16.3943C247.048 16.202 246.96 15.9315 246.96 15.5894V6.47167C246.96 5.62117 246.729 4.97596 246.269 4.52626C245.823 4.07983 245.174 3.85498 244.327 3.85498H240.866C240.003 3.85498 239.348 4.07983 238.904 4.52626C238.458 4.9727 238.236 5.62117 238.236 6.47167V15.5894C238.236 15.9315 238.139 16.1987 237.946 16.3943C237.767 16.5735 237.516 16.6615 237.187 16.6615H230.983C230.135 16.6615 229.487 16.8863 229.041 17.3327C228.594 17.7792 228.373 18.4277 228.373 19.2782V21.2659C228.373 22.1164 228.594 22.7714 229.041 23.2309C229.487 23.6773 230.132 23.9022 230.983 23.9022H237.187C237.513 23.9022 237.767 23.9999 237.946 24.1922C238.139 24.3714 238.236 24.6256 238.236 24.9515V52.7054C238.236 55.85 238.986 58.1799 240.491 59.6984C242.01 61.2039 244.226 61.9567 247.142 61.9567H260.376C261.223 61.9567 261.871 61.7318 262.318 61.2854C262.764 60.8389 262.986 60.1905 262.986 59.34V57.3522C262.986 56.5017 262.764 55.8565 262.318 55.4068C261.888 54.9441 261.269 54.7127 260.467 54.7127L260.464 54.716ZM308.675 24.2378C307.336 21.4224 305.427 19.3075 302.94 17.8932C300.47 16.479 297.547 15.7719 294.171 15.7719C291.225 15.7719 288.57 16.3291 286.204 17.4468C283.854 18.5645 281.837 20.2623 280.156 22.5401C279.963 22.8236 279.778 22.993 279.598 23.0549C279.419 23.1006 279.273 23.0484 279.152 22.8985C279.031 22.7486 278.973 22.5173 278.973 22.2044V2.61669C278.973 1.76619 278.751 1.12097 278.305 0.671281C277.858 0.224847 277.203 0 276.34 0H272.882C272.035 0 271.38 0.224847 270.917 0.671281C270.471 1.11772 270.249 1.76619 270.249 2.61669V59.34C270.249 60.1905 270.471 60.8357 270.917 61.2854C271.38 61.7318 272.032 61.9567 272.882 61.9567H276.34C277.203 61.9567 277.858 61.7318 278.305 61.2854C278.751 60.8389 278.973 60.1905 278.973 59.34V37.6634C278.973 34.6394 279.484 32.0553 280.511 29.9111C281.554 27.7506 283.004 26.1213 284.861 25.0166C286.735 23.8989 288.886 23.3417 291.31 23.3417C293.497 23.3417 295.387 23.8044 296.977 24.7266C298.567 25.6358 299.796 27.0044 300.659 28.839C301.536 30.6704 301.976 32.9286 301.976 35.6105V59.34C301.976 60.1905 302.197 60.8357 302.644 61.2854C303.09 61.7318 303.735 61.9567 304.586 61.9567H308.066C308.913 61.9567 309.562 61.7318 310.008 61.2854C310.455 60.8389 310.676 60.1905 310.676 59.34V34.5808C310.676 30.4846 310.008 27.037 308.669 24.2346L308.675 24.2378ZM108.454 15.7458C105.46 15.7458 102.765 16.3193 100.373 17.4664C97.981 18.6134 95.9574 20.3731 94.302 22.7421C94.0934 23.0093 93.8947 23.1788 93.7089 23.2439C93.5232 23.3124 93.3635 23.2733 93.2299 23.1331C93.0963 22.993 93.0214 22.7551 93.0051 22.4293L92.8258 19.0533C92.7965 18.2647 92.5489 17.6651 92.0894 17.2545C91.6267 16.8439 90.9847 16.6387 90.1668 16.6387H87.1265C86.276 16.6387 85.6275 16.8635 85.181 17.3099C84.7346 17.7564 84.5098 18.4048 84.5098 19.2553V59.34C84.5098 60.1905 84.7346 60.8389 85.181 61.2854C85.6275 61.7318 86.276 61.9567 87.1265 61.9567H90.6132C91.4637 61.9567 92.1122 61.7318 92.5586 61.2854C93.0051 60.8389 93.2299 60.1905 93.2299 59.34V37.6537C93.2299 34.6297 93.748 32.039 94.7843 29.8851C95.8205 27.7311 97.2739 26.0985 99.1444 24.9906C101.015 23.8794 103.166 23.3254 105.593 23.3254C106.861 23.3254 108.021 23.4981 109.08 23.8403C111.905 24.7559 113.961 26.8187 115.161 29.5527C115.936 31.3221 116.278 33.4826 116.278 36.0015V59.34C116.278 60.1905 116.503 60.8389 116.95 61.2854C117.396 61.7318 118.045 61.9567 118.895 61.9567H122.382C123.232 61.9567 123.884 61.7318 124.337 61.2854C124.79 60.8389 125.018 60.1905 125.018 59.34V34.5677C125.018 32.0358 124.741 29.7352 124.19 27.6724C123.64 25.6097 122.835 23.8175 121.776 22.2957C119.811 19.4737 116.937 17.512 113.649 16.4497C112.068 15.9413 110.315 15.7458 108.451 15.7458H108.454ZM156.327 62.8886C169.74 62.8886 179.31 52.9661 179.31 39.3677C179.31 25.7694 169.74 15.8468 156.327 15.8468C142.915 15.8468 133.344 25.9551 133.344 39.3677C133.344 42.496 133.882 45.986 135.488 49.828C136.296 51.7082 137.815 51.9722 139.424 50.8121L142.018 48.9319C143.361 47.9477 143.716 46.7877 143.266 45.0899C142.553 42.8577 142.37 40.8895 142.37 39.1918C142.37 29.8036 148.005 23.3612 156.321 23.3612C164.637 23.3612 170.271 29.7091 170.271 39.3677C170.271 49.0264 164.725 55.3742 156.5 55.3742C153.635 55.3742 150.954 54.8365 147.737 52.4219C146.395 51.3498 145.143 51.1738 143.713 52.2459L141.745 53.6764C140.135 54.8365 139.959 56.4463 141.474 57.7009C146.124 61.4548 151.488 62.8854 156.321 62.8854H156.334L156.327 62.8886Z" fill="white"/>
<path fill-rule="evenodd" clip-rule="evenodd" d="M0 18.6264C0 8.34214 8.34214 0 18.6264 0H48.6321C55.7946 0 61.6015 5.80691 61.6015 12.9694C61.6015 18.1311 59.2292 21.9633 53.8133 24.857C46.0708 29.002 35.3368 33.0297 29.9405 35.252C25.3132 37.1616 21.9633 37.2529 20.2753 37.2529C7.80772 37.2529 0 28.9107 0 18.6264ZM37.8133 62.5595H48.0455C56.0618 62.5595 62.566 56.0683 62.566 48.0455C62.566 37.696 52.0471 30.6704 42.4862 34.6394L33.0362 38.5628C28.3763 40.4985 25.3458 45.041 25.3458 50.0854C25.3458 56.9742 30.9311 62.5595 37.8199 62.5595H37.8133ZM10.7405 39.7034C4.80976 39.7034 0.0065173 44.5131 0.0065173 50.4439V51.832C0.0065173 57.7628 4.81628 62.566 10.7405 62.566C16.6712 62.566 21.4745 57.7563 21.4745 51.832V50.4439C21.4745 44.5131 16.6647 39.7034 10.7405 39.7034Z" fill="white"/>
</svg>
