<svg width="1290" height="1763" viewBox="0 0 1290 1763" fill="none" xmlns="http://www.w3.org/2000/svg">
<path d="M462.217 123.569C460.515 121.97 459.535 120.269 459.277 118.464C459.02 116.659 459.355 114.7 460.283 112.585C462.603 107.945 464.382 103.072 465.62 97.9666C466.858 92.8616 467.476 87.4472 467.476 81.7234C467.476 71.7197 465.878 62.7472 462.681 54.8061C459.484 46.8135 454.946 40.2389 449.067 35.0823C443.189 29.9257 436.331 26.4708 428.493 24.7176C426.843 24.2535 425.476 23.6605 424.393 22.9386C423.362 22.1651 422.589 21.2111 422.073 20.0767C421.557 18.9423 421.299 17.6016 421.299 16.0546V8.93853C421.299 6.30868 422.021 4.3234 423.465 2.98269C424.961 1.59042 426.972 1.12634 429.498 1.59043C442.08 3.54993 453.296 8.19084 463.145 15.5132C472.994 22.8355 480.677 32.2462 486.195 43.7453C491.712 55.1929 494.471 67.8522 494.471 81.7234C494.471 90.7989 493.285 99.4104 490.913 107.558C488.541 115.654 485.138 123.053 480.703 129.757C479.156 131.923 477.377 133.083 475.366 133.237C473.355 133.341 471.37 132.49 469.41 130.685L462.217 123.569ZM416.349 162.862C401.498 162.862 388.117 159.381 376.205 152.42C364.345 145.407 355.038 135.738 348.282 123.414C341.527 111.038 338.15 97.1415 338.15 81.7234C338.15 81.3109 338.279 81.0015 338.537 80.7952C338.794 80.5374 339.104 80.4085 339.465 80.4085H363.83C364.242 80.4085 364.551 80.5374 364.758 80.7952C365.016 81.0015 365.144 81.3109 365.144 81.7234C365.144 93.3772 367.284 103.613 371.564 112.431C375.844 121.248 381.826 128.081 389.509 132.928C397.244 137.775 406.191 140.199 416.349 140.199C422.021 140.199 427.358 139.4 432.36 137.801C437.362 136.202 441.848 133.882 445.819 130.84C447.985 129.447 449.944 128.777 451.697 128.829C453.502 128.88 455.255 129.757 456.957 131.458L462.913 137.414C464.15 138.652 464.975 139.915 465.388 141.204C465.801 142.493 465.749 143.757 465.233 144.994C464.718 146.232 463.712 147.341 462.217 148.32C455.874 153.013 448.81 156.622 441.023 159.149C433.288 161.624 425.064 162.862 416.349 162.862ZM339.465 83.0383C339.104 83.0383 338.794 82.9352 338.537 82.7289C338.279 82.4711 338.15 82.1359 338.15 81.7234C338.15 68.3679 340.78 56.0179 346.039 44.6735C351.351 33.2775 358.853 23.8152 368.548 16.2866C378.242 8.75805 389.535 3.85931 402.426 1.59043C402.581 1.59043 402.684 1.59043 402.736 1.59043C402.839 1.53887 402.968 1.51309 403.123 1.51309C405.649 1.10056 407.66 1.59042 409.156 2.98269C410.651 4.3234 411.399 6.30868 411.399 8.93853V16.2093C411.399 18.5297 410.806 20.3861 409.62 21.7784C408.485 23.1706 406.655 24.2535 404.128 25.027C404.076 25.027 404.025 25.0528 403.973 25.1044C403.922 25.1044 403.87 25.1044 403.819 25.1044C395.723 26.8576 388.761 30.4414 382.935 35.8558C377.108 41.2702 372.673 47.9737 369.631 55.9664C366.64 63.9075 365.144 72.4931 365.144 81.7234C365.144 82.0844 365.016 82.3938 364.758 82.6516C364.551 82.9094 364.242 83.0383 363.83 83.0383H339.465ZM626.572 26.2646C616.208 26.2646 607.132 28.1209 599.346 31.8337C591.611 35.4948 585.552 41.167 581.169 48.8503C576.837 56.5336 574.672 66.1764 574.672 77.7786V134.63C574.672 135.713 574.981 136.563 575.6 137.182C576.27 137.801 577.147 138.11 578.23 138.11H612.031C614.712 138.11 616.749 138.832 618.141 140.276C619.585 141.668 620.307 143.705 620.307 146.387V151.724C620.307 154.405 619.585 156.468 618.141 157.912C616.749 159.304 614.712 160 612.031 160H514.881C512.2 160 510.137 159.304 508.693 157.912C507.301 156.468 506.605 154.405 506.605 151.724V146.387C506.605 143.705 507.301 141.668 508.693 140.276C510.137 138.832 512.2 138.11 514.881 138.11H545.202C546.285 138.11 547.136 137.801 547.754 137.182C548.373 136.563 548.683 135.713 548.683 134.63V28.8171C548.683 27.7342 548.373 26.8834 547.754 26.2646C547.136 25.6458 546.285 25.3364 545.202 25.3364H516.738C514.056 25.3364 511.994 24.6403 510.55 23.248C509.158 21.8041 508.461 19.7415 508.461 17.0601V11.7231C508.461 9.04166 509.158 7.00482 510.55 5.61255C511.994 4.16871 514.056 3.44679 516.738 3.44679H564.694C567.22 3.44679 569.231 4.11714 570.727 5.45785C572.274 6.79855 573.15 8.73227 573.357 11.259L574.208 27.5022C574.208 28.5335 574.44 29.2812 574.904 29.7453C575.368 30.2093 575.909 30.3125 576.528 30.0547C577.147 29.7968 577.74 29.178 578.307 28.1983C583.979 18.5555 591.173 11.5426 599.887 7.15952C608.653 2.77644 618.683 0.5849 629.976 0.5849C632.915 0.5849 635.261 0.842727 637.014 1.35838C638.768 1.87404 640.083 2.80222 640.959 4.14293C641.836 5.43207 642.274 7.23686 642.274 9.55732V18.6844C642.274 21.4174 641.449 23.5058 639.799 24.9497C638.2 26.3419 636.06 26.8834 633.379 26.574C631.729 26.3677 629.46 26.2646 626.572 26.2646ZM659.4 160C656.718 160 654.656 159.304 653.212 157.912C651.819 156.468 651.123 154.405 651.123 151.724V144.84C651.123 142.829 651.433 141.024 652.051 139.425C652.67 137.775 653.676 136.151 655.068 134.552L742.085 29.5132C743.013 28.3272 743.245 27.3475 742.781 26.574C742.369 25.7489 741.44 25.3364 739.997 25.3364H661.411C658.729 25.3364 656.692 24.6403 655.3 23.248C653.908 21.8041 653.212 19.7415 653.212 17.0601V11.7231C653.212 9.04166 653.908 7.00482 655.3 5.61255C656.692 4.16871 658.729 3.44679 661.411 3.44679H770.24C772.921 3.44679 774.958 4.16871 776.35 5.61255C777.794 7.00482 778.516 9.04166 778.516 11.7231V18.6071C778.516 20.6181 778.207 22.4487 777.588 24.0988C776.969 25.6974 775.964 27.2959 774.571 28.8944L687.554 133.934C686.626 135.12 686.368 136.125 686.781 136.95C687.193 137.724 688.122 138.11 689.565 138.11H772.947C775.628 138.11 777.665 138.832 779.058 140.276C780.45 141.668 781.146 143.705 781.146 146.387V151.724C781.146 154.405 780.45 156.468 779.058 157.912C777.665 159.304 775.628 160 772.947 160H659.4ZM917.714 123.569C916.013 121.97 915.033 120.269 914.775 118.464C914.517 116.659 914.852 114.7 915.781 112.585C918.101 107.945 919.88 103.072 921.118 97.9666C922.355 92.8616 922.974 87.4472 922.974 81.7234C922.974 71.7197 921.375 62.7472 918.178 54.8061C914.981 46.8135 910.444 40.2389 904.565 35.0823C898.687 29.9257 891.828 26.4708 883.99 24.7176C882.34 24.2535 880.974 23.6605 879.891 22.9386C878.86 22.1651 878.086 21.2111 877.57 20.0767C877.055 18.9423 876.797 17.6016 876.797 16.0546V8.93853C876.797 6.30868 877.519 4.3234 878.963 2.98269C880.458 1.59042 882.469 1.12634 884.996 1.59043C897.578 3.54993 908.793 8.19084 918.642 15.5132C928.492 22.8355 936.175 32.2462 941.692 43.7453C947.21 55.1929 949.969 67.8522 949.969 81.7234C949.969 90.7989 948.783 99.4104 946.411 107.558C944.039 115.654 940.635 123.053 936.201 129.757C934.654 131.923 932.875 133.083 930.864 133.237C928.852 133.341 926.867 132.49 924.908 130.685L917.714 123.569ZM871.847 162.862C856.996 162.862 843.615 159.381 831.703 152.42C819.843 145.407 810.535 135.738 803.78 123.414C797.025 111.038 793.647 97.1415 793.647 81.7234C793.647 81.3109 793.776 81.0015 794.034 80.7952C794.292 80.5374 794.601 80.4085 794.962 80.4085H819.327C819.74 80.4085 820.049 80.5374 820.255 80.7952C820.513 81.0015 820.642 81.3109 820.642 81.7234C820.642 93.3772 822.782 103.613 827.062 112.431C831.342 121.248 837.324 128.081 845.007 132.928C852.742 137.775 861.688 140.199 871.847 140.199C877.519 140.199 882.856 139.4 887.858 137.801C892.86 136.202 897.346 133.882 901.316 130.84C903.482 129.447 905.442 128.777 907.195 128.829C909 128.88 910.753 129.757 912.455 131.458L918.41 137.414C919.648 138.652 920.473 139.915 920.886 141.204C921.298 142.493 921.247 143.757 920.731 144.994C920.215 146.232 919.21 147.341 917.714 148.32C911.372 153.013 904.307 156.622 896.521 159.149C888.786 161.624 880.561 162.862 871.847 162.862ZM794.962 83.0383C794.601 83.0383 794.292 82.9352 794.034 82.7289C793.776 82.4711 793.647 82.1359 793.647 81.7234C793.647 68.3679 796.277 56.0179 801.537 44.6735C806.848 33.2775 814.351 23.8152 824.045 16.2866C833.74 8.75805 845.033 3.85931 857.924 1.59043C858.079 1.59043 858.182 1.59043 858.233 1.59043C858.336 1.53887 858.465 1.51309 858.62 1.51309C861.147 1.10056 863.158 1.59042 864.653 2.98269C866.149 4.3234 866.896 6.30868 866.896 8.93853V16.2093C866.896 18.5297 866.303 20.3861 865.117 21.7784C863.983 23.1706 862.152 24.2535 859.626 25.027C859.574 25.027 859.523 25.0528 859.471 25.1044C859.419 25.1044 859.368 25.1044 859.316 25.1044C851.22 26.8576 844.259 30.4414 838.432 35.8558C832.605 41.2702 828.171 47.9737 825.128 55.9664C822.137 63.9075 820.642 72.4931 820.642 81.7234C820.642 82.0844 820.513 82.3938 820.255 82.6516C820.049 82.9094 819.74 83.0383 819.327 83.0383H794.962ZM414.475 1396C411.793 1396 409.731 1395.3 408.287 1393.91C406.894 1392.47 406.198 1390.41 406.198 1387.72V1382.39C406.198 1379.71 406.894 1377.67 408.287 1376.28C409.731 1374.83 411.793 1374.11 414.475 1374.11H448.663C449.745 1374.11 450.596 1373.8 451.215 1373.18C451.885 1372.56 452.221 1371.71 452.221 1370.63V1320.28C452.221 1318.06 452.659 1316.18 453.536 1314.63C454.412 1313.03 455.779 1311.69 457.635 1310.61L468.309 1305.04C470.269 1303.85 471.97 1303.23 473.414 1303.18C474.91 1303.13 476.07 1303.72 476.895 1304.96C477.771 1306.15 478.21 1308 478.21 1310.53V1370.63C478.21 1371.71 478.519 1372.56 479.138 1373.18C479.757 1373.8 480.608 1374.11 481.69 1374.11H515.956C518.637 1374.11 520.674 1374.83 522.066 1376.28C523.459 1377.67 524.155 1379.71 524.155 1382.39V1387.72C524.155 1390.41 523.459 1392.47 522.066 1393.91C520.674 1395.3 518.637 1396 515.956 1396H414.475ZM462.121 1295.37C460.368 1296.5 458.718 1297.05 457.171 1296.99C455.676 1296.89 454.464 1296.22 453.536 1294.98C452.659 1293.75 452.221 1292.04 452.221 1289.88V1203.25C452.221 1201.29 452.298 1199.59 452.453 1198.14C452.659 1196.7 452.943 1195.2 453.304 1193.66L456.088 1183.76C456.758 1181.28 457.841 1179.42 459.337 1178.19C460.884 1176.95 462.792 1176.33 465.06 1176.33H469.933C472.615 1176.33 474.652 1177.05 476.044 1178.5C477.488 1179.89 478.21 1181.93 478.21 1184.61V1280.05C478.21 1282.27 477.746 1284.18 476.817 1285.78C475.941 1287.38 474.574 1288.72 472.718 1289.8L462.121 1295.37ZM416.331 1198.22C413.65 1198.22 411.587 1197.52 410.143 1196.13C408.751 1194.69 408.055 1192.63 408.055 1189.94V1184.61C408.055 1181.93 408.751 1179.89 410.143 1178.5C411.587 1177.05 413.65 1176.33 416.331 1176.33H438.453C441.289 1176.33 443.403 1177.16 444.795 1178.81C446.239 1180.46 446.6 1182.62 445.878 1185.3L444.331 1190.79C443.712 1193.37 442.629 1195.26 441.082 1196.44C439.587 1197.63 437.679 1198.22 435.359 1198.22H416.331ZM562.389 1396C559.708 1396 557.645 1395.3 556.201 1393.91C554.809 1392.47 554.113 1390.41 554.113 1387.72V1264.82C554.113 1263.73 553.803 1262.88 553.185 1262.26C552.566 1261.65 551.715 1261.34 550.632 1261.34H518.223C515.542 1261.34 513.505 1260.64 512.113 1259.25C510.72 1257.8 510.024 1255.74 510.024 1253.06V1247.72C510.024 1245.04 510.72 1243 512.113 1241.61C513.505 1240.17 515.542 1239.45 518.223 1239.45H571.903C574.584 1239.45 576.621 1240.17 578.013 1241.61C579.406 1243 580.102 1245.04 580.102 1247.72V1387.72C580.102 1390.41 579.406 1392.47 578.013 1393.91C576.621 1395.3 574.584 1396 571.903 1396H562.389ZM559.837 1212.14C557.155 1212.14 555.092 1211.45 553.649 1210.05C552.256 1208.61 551.56 1206.55 551.56 1203.87V1189.25C551.56 1186.57 552.256 1184.53 553.649 1183.14C555.092 1181.69 557.155 1180.97 559.837 1180.97H574.455C577.137 1180.97 579.174 1181.69 580.566 1183.14C582.01 1184.53 582.732 1186.57 582.732 1189.25V1203.87C582.732 1206.55 582.01 1208.61 580.566 1210.05C579.174 1211.45 577.137 1212.14 574.455 1212.14H559.837ZM663.014 1176.33C665.696 1176.33 667.733 1177.05 669.125 1178.5C670.569 1179.89 671.291 1181.93 671.291 1184.61V1370.63C671.291 1371.71 671.6 1372.56 672.219 1373.18C672.838 1373.8 673.689 1374.11 674.771 1374.11H709.037C711.718 1374.11 713.755 1374.83 715.147 1376.28C716.54 1377.67 717.236 1379.71 717.236 1382.39V1387.72C717.236 1390.41 716.54 1392.47 715.147 1393.91C713.755 1395.3 711.718 1396 709.037 1396H607.556C604.874 1396 602.812 1395.3 601.368 1393.91C599.975 1392.47 599.279 1390.41 599.279 1387.72V1382.39C599.279 1379.71 599.975 1377.67 601.368 1376.28C602.812 1374.83 604.874 1374.11 607.556 1374.11H641.744C642.826 1374.11 643.677 1373.8 644.296 1373.18C644.966 1372.56 645.302 1371.71 645.302 1370.63V1201.7C645.302 1200.62 644.966 1199.77 644.296 1199.15C643.677 1198.53 642.826 1198.22 641.744 1198.22H609.412C606.731 1198.22 604.668 1197.52 603.224 1196.13C601.832 1194.69 601.136 1192.63 601.136 1189.94V1184.61C601.136 1181.93 601.832 1179.89 603.224 1178.5C604.668 1177.05 606.731 1176.33 609.412 1176.33H663.014ZM776.178 1398.86C773.238 1398.86 770.325 1398.66 767.437 1398.24C764.55 1397.88 761.739 1397.34 759.006 1396.62C757.459 1396.21 756.299 1395.54 755.526 1394.61C754.804 1393.68 754.468 1392.57 754.52 1391.28C754.623 1389.99 755.139 1388.6 756.067 1387.1L760.708 1380.45C761.842 1378.65 763.054 1377.51 764.343 1377.05C765.632 1376.53 767.205 1376.48 769.062 1376.89C770.763 1377.41 772.388 1377.82 773.934 1378.13C776.564 1378.55 779.375 1378.75 782.365 1378.75C790.616 1378.75 798.583 1376.89 806.266 1373.18C813.949 1369.47 820.215 1364.03 825.062 1356.86C829.961 1349.64 832.41 1341.06 832.41 1331.1V1325.07C832.41 1324.87 832.41 1324.74 832.41 1324.68C832.41 1324.58 832.41 1324.43 832.41 1324.22C832.513 1322.78 832.848 1321.51 833.415 1320.43C833.983 1319.3 834.808 1318.37 835.891 1317.65C837.025 1316.87 838.417 1316.38 840.067 1316.18L849.117 1315.02C851.85 1314.6 854.016 1315.07 855.614 1316.41C857.213 1317.75 858.012 1319.81 858.012 1322.6V1363.9C858.012 1367.87 858.734 1370.71 860.178 1372.41C861.673 1374.11 864.149 1374.96 867.603 1374.96H875.493C878.02 1374.96 879.953 1375.63 881.294 1376.97C882.686 1378.31 883.383 1380.25 883.383 1382.77V1387.72C883.383 1390.41 882.661 1392.47 881.217 1393.91C879.824 1395.3 877.788 1396 875.106 1396H860.951C852.959 1396 846.848 1394.22 842.62 1390.66C838.443 1387.05 835.891 1381.64 834.962 1374.42L834.808 1373.41C834.705 1372.69 834.498 1372.1 834.189 1371.64C833.88 1371.17 833.467 1370.94 832.951 1370.94C832.539 1370.94 832.1 1371.09 831.636 1371.4C831.224 1371.71 830.76 1372.2 830.244 1372.87C824.159 1381.48 816.476 1387.98 807.194 1392.36C797.912 1396.7 787.574 1398.86 776.178 1398.86ZM737.117 1385.48C732.785 1381.46 729.459 1376.74 727.139 1371.33C724.87 1365.91 723.735 1360.01 723.735 1353.61C723.735 1340.93 728.17 1330.77 737.039 1323.14C745.96 1315.51 759.161 1310.74 776.642 1308.83L817.25 1304.34C819.879 1304.08 821.968 1304.63 823.515 1305.97C825.062 1307.26 825.887 1309.29 825.99 1312.08L826.145 1314.01C826.248 1316.43 825.629 1318.42 824.288 1319.97C822.948 1321.51 820.988 1322.44 818.41 1322.75L782.675 1326.77C774.992 1327.65 768.701 1329.12 763.802 1331.18C758.903 1333.24 755.242 1336.03 752.818 1339.54C750.446 1342.99 749.26 1347.3 749.26 1352.45C749.312 1354.98 749.673 1357.35 750.343 1359.57C751.014 1361.53 751.942 1363.54 753.128 1365.6C753.953 1367.3 754.365 1368.88 754.365 1370.32C754.365 1371.71 753.875 1373.23 752.896 1374.88L746.94 1383.39C745.651 1385.51 744.104 1386.77 742.299 1387.18C740.546 1387.59 738.818 1387.03 737.117 1385.48ZM739.05 1287.71C737.246 1287.71 735.699 1287.35 734.409 1286.63C733.12 1285.91 732.218 1284.88 731.702 1283.54C731.238 1282.14 731.212 1280.54 731.625 1278.74C733.584 1270.39 737.478 1263.04 743.305 1256.7C749.131 1250.3 756.505 1245.35 765.426 1241.84C774.347 1238.34 784.273 1236.58 795.205 1236.58C795.618 1236.58 795.953 1236.74 796.211 1237.05C796.469 1237.31 796.572 1237.67 796.52 1238.13L795.824 1256.77C795.824 1257.19 795.695 1257.52 795.437 1257.78C795.231 1257.98 794.896 1258.09 794.432 1258.09C788.244 1258.09 782.572 1259.04 777.415 1260.95C772.31 1262.81 768.004 1265.46 764.498 1268.92C760.992 1272.37 758.491 1276.45 756.995 1281.14C756.015 1283.46 754.829 1285.13 753.437 1286.17C752.045 1287.2 750.317 1287.71 748.255 1287.71H739.05ZM841.305 1306.59C838.52 1307.05 836.329 1306.61 834.73 1305.27C833.183 1303.88 832.41 1301.76 832.41 1298.93V1290.5C832.41 1283.95 830.863 1278.25 827.769 1273.4C824.727 1268.5 820.344 1264.74 814.62 1262.11C808.948 1259.43 802.244 1258.09 794.509 1258.09C794.509 1258.09 794.483 1258.09 794.432 1258.09C794.122 1258.09 793.865 1258.04 793.658 1257.93C793.504 1257.78 793.375 1257.6 793.272 1257.39C793.168 1257.19 793.117 1256.9 793.117 1256.54L793.813 1237.9C793.813 1237.64 793.865 1237.41 793.968 1237.2C794.071 1237 794.226 1236.84 794.432 1236.74C794.69 1236.64 794.947 1236.58 795.205 1236.58C795.257 1236.58 795.283 1236.58 795.283 1236.58C807.813 1236.58 818.822 1238.75 828.31 1243.08C837.799 1247.41 845.121 1253.55 850.277 1261.49C855.434 1269.38 858.012 1278.51 858.012 1288.87V1296.38C858.012 1298.9 857.368 1300.94 856.079 1302.49C854.789 1304.03 852.907 1304.99 850.432 1305.35L841.305 1306.59Z" fill="#FFA18C"/>
<path d="M233.151 395.055C231.14 394.127 229.618 392.838 228.587 391.187C227.556 389.537 227.04 387.552 227.04 385.232V341.607C227.04 340.266 227.143 339.003 227.349 337.817C227.556 336.58 227.865 335.265 228.278 333.872L233.847 317.706C234.362 316.005 235.239 314.716 236.477 313.839C237.766 312.911 239.338 312.447 241.195 312.447H244.908C246.919 312.447 248.491 312.988 249.626 314.071C250.812 315.154 251.431 316.701 251.482 318.712L252.333 337.276C252.385 338.359 252.617 339.158 253.029 339.673C253.493 340.138 254.009 340.241 254.576 339.983C255.195 339.673 255.788 339.055 256.355 338.126C261.976 328.174 269.143 320.929 277.858 316.392C286.573 311.854 296.55 309.585 307.792 309.585C309.958 309.585 311.608 309.636 312.742 309.74C315.372 309.843 317.331 310.694 318.621 312.292C319.961 313.891 320.632 315.979 320.632 318.557V327.684C320.632 330.417 319.961 332.48 318.621 333.872C317.28 335.213 315.424 335.78 313.051 335.574C310.937 335.368 308.23 335.265 304.93 335.265C297.247 335.265 290.208 336.296 283.814 338.359C277.471 340.37 272.031 343.464 267.493 347.64C262.852 351.817 259.269 357.128 256.742 363.574C254.267 370.02 253.029 377.394 253.029 385.696V393.276C253.029 396.421 252.153 398.561 250.399 399.696C248.646 400.83 246.3 400.727 243.361 399.386L233.151 395.055ZM193.239 469C190.557 469 188.495 468.304 187.051 466.912C185.659 465.468 184.963 463.405 184.963 460.724V455.387C184.963 452.705 185.659 450.668 187.051 449.276C188.495 447.832 190.557 447.11 193.239 447.11H223.559C224.642 447.11 225.493 446.801 226.112 446.182C226.731 445.563 227.04 444.713 227.04 443.63V413.077C227.04 409.983 227.917 407.869 229.67 406.735C231.475 405.6 233.847 405.703 236.786 407.044L246.996 411.375C249.007 412.252 250.502 413.515 251.482 415.165C252.513 416.816 253.029 418.801 253.029 421.121V444.094C253.029 445.022 253.313 445.77 253.88 446.337C254.447 446.853 255.195 447.11 256.123 447.11H290.388C293.07 447.11 295.107 447.832 296.499 449.276C297.943 450.668 298.665 452.705 298.665 455.387V460.724C298.665 463.405 297.943 465.468 296.499 466.912C295.107 468.304 293.07 469 290.388 469H193.239ZM195.095 334.336C192.414 334.336 190.351 333.64 188.907 332.248C187.515 330.804 186.819 328.742 186.819 326.06V320.723C186.819 318.042 187.515 316.005 188.907 314.613C190.351 313.169 192.414 312.447 195.095 312.447H216.675C218.583 312.447 220.13 312.859 221.316 313.684C222.554 314.458 223.353 315.567 223.714 317.01C224.127 318.403 224.049 320.001 223.482 321.806L221.162 327.53C220.491 329.799 219.357 331.5 217.758 332.635C216.16 333.769 214.174 334.336 211.802 334.336H195.095ZM463.393 416.945C465.249 416.945 466.796 417.305 468.034 418.027C469.271 418.698 470.096 419.703 470.509 421.044C470.921 422.385 470.818 423.932 470.199 425.685C467.209 434.709 462.258 442.727 455.348 449.74C448.439 456.753 440.162 462.193 430.52 466.061C420.877 469.928 410.589 471.862 399.658 471.862C384.755 471.862 371.348 468.381 359.436 461.42C347.525 454.407 338.191 444.738 331.436 432.414C324.733 420.09 321.381 406.193 321.381 390.723C321.381 375.254 324.707 361.357 331.359 349.033C338.011 336.708 347.215 327.066 358.972 320.104C370.781 313.091 384.059 309.585 398.807 309.585C413.039 309.585 425.801 312.834 437.094 319.331C448.387 325.828 457.231 334.955 463.625 346.712C470.019 358.418 473.216 371.825 473.216 386.933V388.016C473.216 390.543 472.52 392.502 471.127 393.895C469.787 395.235 467.853 395.906 465.326 395.906H351.779C350.696 395.906 349.845 396.241 349.226 396.911C348.608 397.53 348.376 398.381 348.53 399.464C349.458 409.725 352.14 418.672 356.574 426.304C361.009 433.884 366.913 439.737 374.287 443.862C381.661 447.987 390.118 450.05 399.658 450.05C406.722 450.05 413.271 448.941 419.304 446.724C425.337 444.506 430.52 441.361 434.851 437.287C439.183 433.213 442.431 428.495 444.597 423.132C445.577 421.018 446.763 419.471 448.155 418.491C449.599 417.46 451.404 416.945 453.569 416.945H463.393ZM349.768 373.397C349.407 374.583 349.536 375.537 350.155 376.259C350.773 376.981 351.676 377.342 352.862 377.342H442.586C443.72 377.342 444.623 376.981 445.293 376.259C445.963 375.537 446.196 374.609 445.989 373.475C444.752 365.018 442.019 357.618 437.79 351.276C433.614 344.933 428.173 340.034 421.47 336.579C414.818 333.073 407.263 331.32 398.807 331.32C390.35 331.32 382.718 333.021 375.912 336.425C369.156 339.828 363.536 344.701 359.05 351.044C354.615 357.335 351.521 364.786 349.768 373.397ZM572.282 529.1C559.752 529.1 548.279 527.166 537.862 523.299C527.498 519.483 518.886 514.043 512.028 506.978C505.221 499.965 500.735 491.844 498.569 482.613C498.105 480.86 498.131 479.313 498.647 477.972C499.162 476.632 500.065 475.6 501.354 474.878C502.695 474.208 504.267 473.873 506.072 473.873H516.823C518.886 473.873 520.51 474.337 521.696 475.265C522.882 476.245 523.965 477.844 524.945 480.061C526.698 485.424 529.792 490.168 534.227 494.293C538.713 498.418 544.231 501.615 550.779 503.884C557.328 506.153 564.496 507.287 572.282 507.287C582.75 507.287 591.671 505.225 599.045 501.1C606.419 496.974 612.039 490.967 615.907 483.077C619.774 475.188 621.708 465.648 621.708 454.458V442.16C621.708 441.129 621.502 440.355 621.089 439.84C620.728 439.324 620.238 439.169 619.62 439.376C619.052 439.53 618.434 440.046 617.763 440.923C611.936 449.07 604.691 455.284 596.028 459.563C587.417 463.792 577.722 465.906 566.945 465.906C552.868 465.906 540.234 462.554 529.045 455.851C517.855 449.096 509.089 439.814 502.746 428.005C496.455 416.145 493.31 402.816 493.31 388.016C493.31 373.268 496.481 359.913 502.823 347.95C509.218 335.986 518.01 326.602 529.199 319.795C540.441 312.988 553.1 309.585 567.177 309.585C577.851 309.585 587.597 311.725 596.415 316.005C605.233 320.285 612.607 326.498 618.537 334.646C619.568 335.986 620.47 336.554 621.244 336.347C622.069 336.09 622.559 335.136 622.713 333.486L623.564 320.259C623.771 317.732 624.596 315.799 626.039 314.458C627.483 313.117 629.469 312.447 631.995 312.447H639.421C642.102 312.447 644.139 313.169 645.531 314.613C646.975 316.005 647.697 318.042 647.697 320.723V454.072C647.697 469.696 644.706 483.129 638.725 494.37C632.795 505.663 624.157 514.275 612.813 520.205C601.52 526.135 588.01 529.1 572.282 529.1ZM520.304 388.016C520.304 398.948 522.444 408.668 526.724 417.177C531.004 425.685 537.011 432.337 544.746 437.132C552.481 441.876 561.402 444.249 571.509 444.249C581.513 444.249 590.356 441.851 598.039 437.055C605.723 432.259 611.678 425.633 615.907 417.177C620.187 408.668 622.327 398.948 622.327 388.016C622.327 377.136 620.187 367.442 615.907 358.933C611.678 350.425 605.723 343.799 598.039 339.055C590.356 334.259 581.513 331.861 571.509 331.861C561.402 331.861 552.481 334.259 544.746 339.055C537.011 343.799 531.004 350.425 526.724 358.933C522.444 367.442 520.304 377.136 520.304 388.016ZM799.457 497.232C797.962 495.634 797.137 493.932 796.982 492.127C796.879 490.374 797.394 488.363 798.529 486.094C801.107 481.969 803.067 477.25 804.407 471.939C805.748 466.628 806.418 460.801 806.418 454.458V442.16C806.418 440.562 806.006 439.608 805.181 439.298C804.407 438.989 803.505 439.53 802.474 440.923C796.647 449.07 789.402 455.284 780.739 459.563C772.127 463.792 762.433 465.906 751.656 465.906C737.578 465.906 724.945 462.554 713.755 455.851C702.565 449.096 693.799 439.814 687.456 428.005C681.165 416.145 678.02 402.816 678.02 388.016C678.02 387.604 678.123 387.294 678.329 387.088C678.587 386.83 678.922 386.701 679.335 386.701H703.7C704.112 386.701 704.422 386.83 704.628 387.088C704.886 387.294 705.015 387.604 705.015 388.016C705.015 398.948 707.155 408.668 711.434 417.177C715.714 425.685 721.696 432.337 729.379 437.132C737.114 441.876 746.035 444.249 756.142 444.249C764.96 444.249 772.901 442.366 779.965 438.602C787.03 434.838 792.805 429.578 797.291 422.823C801.829 416.068 804.717 408.281 805.954 399.464C806.47 397.246 807.243 395.416 808.275 393.972C809.306 392.477 810.75 391.265 812.606 390.337L822.507 385.077C824.363 384.097 826.039 383.685 827.534 383.839C829.081 383.994 830.267 384.69 831.092 385.928C831.969 387.165 832.407 388.841 832.407 390.955V454.072C832.407 464.333 831.092 473.667 828.463 482.072C825.833 490.529 821.991 497.928 816.938 504.271C815.855 505.663 814.669 506.566 813.38 506.978C812.142 507.391 810.853 507.313 809.512 506.746C808.172 506.23 806.882 505.328 805.645 504.039L799.457 497.232ZM756.993 529.1C744.462 529.1 732.989 527.166 722.573 523.299C712.208 519.483 703.597 514.043 696.738 506.978C689.932 499.965 685.445 491.844 683.28 482.613C682.764 480.86 682.764 479.313 683.28 477.972C683.847 476.632 684.775 475.6 686.064 474.878C687.353 474.208 688.926 473.873 690.782 473.873H701.534C703.597 473.873 705.221 474.337 706.407 475.265C707.593 476.245 708.676 477.844 709.655 480.061C711.409 485.424 714.503 490.168 718.937 494.293C723.372 498.418 728.864 501.615 735.412 503.884C742.013 506.153 749.206 507.287 756.993 507.287C761.737 507.287 766.12 506.823 770.142 505.895C774.164 505.019 777.903 503.678 781.357 501.873C783.523 500.996 785.483 500.687 787.236 500.945C789.041 501.203 790.639 502.182 792.032 503.884L797.214 509.608C798.451 511.052 799.225 512.47 799.534 513.862C799.844 515.306 799.663 516.621 798.993 517.807C798.323 518.993 797.137 519.973 795.435 520.746C790.072 523.479 784.168 525.542 777.722 526.934C771.328 528.378 764.418 529.1 756.993 529.1ZM679.335 389.408C678.922 389.408 678.587 389.305 678.329 389.099C678.123 388.841 678.02 388.48 678.02 388.016C678.02 373.268 681.191 359.913 687.534 347.95C693.928 335.986 702.72 326.602 713.91 319.795C725.151 312.988 737.785 309.585 751.81 309.585C762.536 309.585 772.308 311.725 781.125 316.005C789.943 320.285 797.291 326.498 803.17 334.646C804.201 335.986 805.155 336.528 806.032 336.27C806.908 336.012 807.372 335.084 807.424 333.486L808.275 320.259C808.326 317.784 809.1 315.876 810.595 314.535C812.091 313.143 814.127 312.447 816.706 312.447H824.131C826.813 312.447 828.849 313.169 830.242 314.613C831.685 316.005 832.407 318.042 832.407 320.723V361.718C832.407 363.987 831.918 365.946 830.938 367.596C829.958 369.195 828.514 370.51 826.606 371.541L815.236 377.652C812.761 378.992 810.647 379.198 808.893 378.27C807.14 377.342 805.825 375.408 804.949 372.469C803.247 364.373 800.127 357.283 795.59 351.198C791.103 345.062 785.483 340.318 778.728 336.966C771.973 333.563 764.444 331.861 756.142 331.861C746.035 331.861 737.114 334.233 729.379 338.977C721.644 343.721 715.637 350.373 711.357 358.933C707.129 367.442 705.015 377.136 705.015 388.016C705.015 388.48 704.886 388.841 704.628 389.099C704.422 389.305 704.112 389.408 703.7 389.408H679.335ZM901.103 469C898.421 469 896.358 468.304 894.915 466.912C893.522 465.468 892.826 463.405 892.826 460.724V337.817C892.826 336.734 892.517 335.883 891.898 335.265C891.279 334.646 890.428 334.336 889.346 334.336H856.937C854.255 334.336 852.218 333.64 850.826 332.248C849.434 330.804 848.738 328.742 848.738 326.06V320.723C848.738 318.042 849.434 316.005 850.826 314.613C852.218 313.169 854.255 312.447 856.937 312.447H910.616C913.298 312.447 915.335 313.169 916.727 314.613C918.119 316.005 918.815 318.042 918.815 320.723V460.724C918.815 463.405 918.119 465.468 916.727 466.912C915.335 468.304 913.298 469 910.616 469H901.103ZM898.55 285.143C895.869 285.143 893.806 284.447 892.362 283.054C890.97 281.611 890.274 279.548 890.274 276.867V262.248C890.274 259.566 890.97 257.529 892.362 256.137C893.806 254.693 895.869 253.971 898.55 253.971H913.169C915.85 253.971 917.887 254.693 919.279 256.137C920.723 257.529 921.445 259.566 921.445 262.248V276.867C921.445 279.548 920.723 281.611 919.279 283.054C917.887 284.447 915.85 285.143 913.169 285.143H898.55ZM1090.06 416.945C1091.92 416.945 1093.46 417.305 1094.7 418.027C1095.94 418.698 1096.76 419.703 1097.18 421.044C1097.59 422.385 1097.49 423.932 1096.87 425.685C1093.88 434.709 1088.93 442.727 1082.02 449.74C1075.11 456.753 1066.83 462.193 1057.19 466.061C1047.54 469.928 1037.26 471.862 1026.32 471.862C1011.42 471.862 998.015 468.381 986.104 461.42C974.192 454.407 964.859 444.738 958.103 432.414C951.4 420.09 948.048 406.193 948.048 390.723C948.048 375.254 951.374 361.357 958.026 349.033C964.678 336.708 973.883 327.066 985.64 320.104C997.448 313.091 1010.73 309.585 1025.47 309.585C1039.71 309.585 1052.47 312.834 1063.76 319.331C1075.05 325.828 1083.9 334.955 1090.29 346.712C1096.69 358.418 1099.88 371.825 1099.88 386.933V388.016C1099.88 390.543 1099.19 392.502 1097.79 393.895C1096.45 395.235 1094.52 395.906 1091.99 395.906H978.446C977.363 395.906 976.512 396.241 975.894 396.911C975.275 397.53 975.043 398.381 975.197 399.464C976.126 409.725 978.807 418.672 983.242 426.304C987.676 433.884 993.581 439.737 1000.95 443.862C1008.33 447.987 1016.79 450.05 1026.32 450.05C1033.39 450.05 1039.94 448.941 1045.97 446.724C1052 444.506 1057.19 441.361 1061.52 437.287C1065.85 433.213 1069.1 428.495 1071.26 423.132C1072.24 421.018 1073.43 419.471 1074.82 418.491C1076.27 417.46 1078.07 416.945 1080.24 416.945H1090.06ZM976.435 373.397C976.074 374.583 976.203 375.537 976.822 376.259C977.441 376.981 978.343 377.342 979.529 377.342H1069.25C1070.39 377.342 1071.29 376.981 1071.96 376.259C1072.63 375.537 1072.86 374.609 1072.66 373.475C1071.42 365.018 1068.69 357.618 1064.46 351.276C1060.28 344.933 1054.84 340.034 1048.14 336.579C1041.49 333.073 1033.93 331.32 1025.47 331.32C1017.02 331.32 1009.39 333.021 1002.58 336.425C995.824 339.828 990.203 344.701 985.717 351.044C981.282 357.335 978.188 364.786 976.435 373.397ZM232.179 1700.44C229.807 1699.87 228.028 1698.81 226.842 1697.27C225.656 1695.72 225.063 1693.73 225.063 1691.31V1626.72C225.063 1626.31 225.192 1626 225.45 1625.8C225.707 1625.54 226.017 1625.41 226.378 1625.41H249.273C249.685 1625.41 249.995 1625.54 250.201 1625.8C250.459 1626 250.588 1626.31 250.588 1626.72C250.691 1638.53 252.857 1648.9 257.085 1657.82C261.365 1666.69 267.321 1673.54 274.953 1678.39C282.584 1683.19 291.35 1685.59 301.251 1685.59C311.358 1685.59 320.253 1683.16 327.936 1678.31C335.62 1673.42 341.575 1666.53 345.804 1657.66C350.084 1648.74 352.224 1638.43 352.224 1626.72C352.224 1621.31 351.656 1616.18 350.522 1611.33C349.388 1606.48 347.712 1602.13 345.494 1598.26C344.721 1596.09 344.489 1594.11 344.798 1592.3C345.108 1590.45 346.062 1588.8 347.66 1587.35L355.782 1579.15C357.174 1577.92 358.515 1577.12 359.804 1576.76C361.144 1576.34 362.408 1576.45 363.594 1577.07C364.78 1577.63 365.837 1578.69 366.765 1580.24C370.787 1586.89 373.855 1594.13 375.97 1601.97C378.135 1609.76 379.218 1618.01 379.218 1626.72C379.218 1642.14 376.047 1656.04 369.704 1668.41C363.362 1680.74 354.596 1690.41 343.406 1697.42C332.216 1704.38 319.608 1707.86 305.583 1707.86C294.908 1707.86 285.24 1705.7 276.577 1701.36C267.965 1696.98 260.746 1690.66 254.919 1682.41C254.301 1681.59 253.682 1681.1 253.063 1680.94C252.496 1680.74 252.006 1680.89 251.593 1681.41C251.232 1681.87 251.052 1682.62 251.052 1683.65V1695.64C251.052 1698.53 250.201 1700.64 248.499 1701.98C246.849 1703.32 244.658 1703.63 241.925 1702.91L232.179 1700.44ZM233.262 1762.24C230.58 1762.24 228.544 1761.52 227.151 1760.07C225.759 1758.68 225.063 1756.64 225.063 1753.96V1717.76C225.063 1714.87 225.888 1712.76 227.538 1711.42C229.24 1710.08 231.431 1709.77 234.113 1710.49L243.936 1712.97C246.256 1713.53 248.01 1714.59 249.196 1716.14C250.433 1717.69 251.052 1719.67 251.052 1722.09V1753.96C251.052 1756.64 250.33 1758.68 248.886 1760.07C247.494 1761.52 245.457 1762.24 242.776 1762.24H233.262ZM226.378 1628.04C226.017 1628.04 225.707 1627.91 225.45 1627.65C225.192 1627.39 225.063 1627.08 225.063 1626.72V1556.72C225.063 1554.04 225.759 1552 227.151 1550.61C228.544 1549.17 230.58 1548.45 233.262 1548.45H240.687C243.214 1548.45 245.199 1549.07 246.643 1550.3C248.087 1551.49 248.886 1553.22 249.041 1555.49L249.969 1569.87C250.124 1571.47 250.614 1572.4 251.439 1572.66C252.264 1572.91 253.192 1572.4 254.223 1571.11C259.999 1562.81 267.295 1556.49 276.113 1552.16C284.931 1547.78 294.754 1545.58 305.583 1545.58C313.885 1545.58 321.774 1546.87 329.251 1549.45C336.728 1552.03 343.586 1555.72 349.826 1560.51C351.785 1562.11 352.765 1563.89 352.765 1565.85C352.765 1567.81 351.863 1569.72 350.058 1571.57L343.406 1578.23C341.704 1579.98 339.951 1580.83 338.146 1580.78C336.341 1580.73 334.382 1579.85 332.268 1578.15C329.483 1575.93 326.441 1574.05 323.141 1572.5C319.892 1570.96 316.437 1569.79 312.776 1569.02C309.115 1568.25 305.273 1567.86 301.251 1567.86C291.35 1567.86 282.584 1570.28 274.953 1575.13C267.321 1579.93 261.365 1586.79 257.085 1595.71C252.857 1604.58 250.691 1614.91 250.588 1626.72C250.588 1627.08 250.459 1627.39 250.201 1627.65C249.995 1627.91 249.685 1628.04 249.273 1628.04H226.378ZM477.46 1707.86C462.609 1707.86 449.228 1704.38 437.317 1697.42C425.456 1690.41 416.149 1680.74 409.394 1668.41C402.639 1656.04 399.261 1642.14 399.261 1626.72C399.261 1611.31 402.639 1597.43 409.394 1585.11C416.149 1572.73 425.456 1563.07 437.317 1556.1C449.228 1549.09 462.609 1545.58 477.46 1545.58C492.26 1545.58 505.589 1549.09 517.45 1556.1C529.361 1563.07 538.695 1572.73 545.45 1585.11C552.205 1597.43 555.582 1611.31 555.582 1626.72C555.582 1642.14 552.205 1656.04 545.45 1668.41C538.695 1680.74 529.361 1690.41 517.45 1697.42C505.589 1704.38 492.26 1707.86 477.46 1707.86ZM477.46 1685.2C487.567 1685.2 496.488 1682.78 504.223 1677.93C511.958 1673.08 517.939 1666.25 522.168 1657.43C526.448 1648.61 528.588 1638.38 528.588 1626.72C528.588 1615.07 526.448 1604.83 522.168 1596.02C517.939 1587.2 511.958 1580.37 504.223 1575.52C496.488 1570.67 487.567 1568.25 477.46 1568.25C467.302 1568.25 458.355 1570.67 450.62 1575.52C442.937 1580.37 436.956 1587.2 432.676 1596.02C428.396 1604.83 426.256 1615.07 426.256 1626.72C426.256 1638.38 428.396 1648.61 432.676 1657.43C436.956 1666.25 442.937 1673.08 450.62 1677.93C458.355 1682.78 467.302 1685.2 477.46 1685.2ZM592.823 1762.24C590.142 1762.24 588.105 1761.52 586.713 1760.07C585.32 1758.68 584.624 1756.64 584.624 1753.96V1556.72C584.624 1554.04 585.32 1552 586.713 1550.61C588.105 1549.17 590.142 1548.45 592.823 1548.45H600.249C602.775 1548.45 604.735 1549.07 606.127 1550.3C607.571 1551.49 608.396 1553.22 608.602 1555.49L609.53 1569.87C609.685 1571.52 610.175 1572.48 611 1572.73C611.825 1572.94 612.753 1572.4 613.785 1571.11C619.56 1562.81 626.856 1556.49 635.674 1552.16C644.492 1547.78 654.315 1545.58 665.144 1545.58C679.17 1545.58 691.778 1549.09 702.967 1556.1C714.157 1563.07 722.923 1572.73 729.266 1585.11C735.608 1597.43 738.78 1611.31 738.78 1626.72C738.78 1642.14 735.608 1656.04 729.266 1668.41C722.923 1680.74 714.157 1690.41 702.967 1697.42C691.778 1704.38 679.17 1707.86 665.144 1707.86C654.47 1707.86 644.801 1705.7 636.138 1701.36C627.527 1696.98 620.308 1690.66 614.481 1682.41C613.862 1681.59 613.243 1681.1 612.624 1680.94C612.057 1680.74 611.567 1680.89 611.155 1681.41C610.794 1681.87 610.613 1682.62 610.613 1683.65V1753.96C610.613 1756.64 609.891 1758.68 608.448 1760.07C607.055 1761.52 605.018 1762.24 602.337 1762.24H592.823ZM610.149 1626.72C610.149 1638.43 612.263 1648.74 616.492 1657.66C620.72 1666.53 626.65 1673.42 634.282 1678.31C641.965 1683.16 650.809 1685.59 660.812 1685.59C670.919 1685.59 679.814 1683.16 687.498 1678.31C695.181 1673.42 701.137 1666.53 705.365 1657.66C709.645 1648.74 711.785 1638.43 711.785 1626.72C711.785 1615.02 709.645 1604.73 705.365 1595.86C701.137 1586.94 695.181 1580.06 687.498 1575.21C679.814 1570.31 670.919 1567.86 660.812 1567.86C650.809 1567.86 641.965 1570.31 634.282 1575.21C626.65 1580.06 620.72 1586.94 616.492 1595.86C612.263 1604.73 610.149 1615.02 610.149 1626.72ZM775.298 1700.44C772.926 1699.87 771.147 1698.81 769.961 1697.27C768.775 1695.72 768.182 1693.73 768.182 1691.31V1626.72C768.182 1626.31 768.311 1626 768.568 1625.8C768.826 1625.54 769.136 1625.41 769.497 1625.41H792.392C792.804 1625.41 793.114 1625.54 793.32 1625.8C793.578 1626 793.707 1626.31 793.707 1626.72C793.81 1638.53 795.976 1648.9 800.204 1657.82C804.484 1666.69 810.44 1673.54 818.071 1678.39C825.703 1683.19 834.469 1685.59 844.37 1685.59C854.477 1685.59 863.372 1683.16 871.055 1678.31C878.738 1673.42 884.694 1666.53 888.923 1657.66C893.203 1648.74 895.343 1638.43 895.343 1626.72C895.343 1621.31 894.775 1616.18 893.641 1611.33C892.506 1606.48 890.831 1602.13 888.613 1598.26C887.84 1596.09 887.608 1594.11 887.917 1592.3C888.226 1590.45 889.18 1588.8 890.779 1587.35L898.901 1579.15C900.293 1577.92 901.634 1577.12 902.923 1576.76C904.263 1576.34 905.527 1576.45 906.713 1577.07C907.899 1577.63 908.956 1578.69 909.884 1580.24C913.906 1586.89 916.974 1594.13 919.088 1601.97C921.254 1609.76 922.337 1618.01 922.337 1626.72C922.337 1642.14 919.166 1656.04 912.823 1668.41C906.481 1680.74 897.715 1690.41 886.525 1697.42C875.335 1704.38 862.727 1707.86 848.701 1707.86C838.027 1707.86 828.359 1705.7 819.696 1701.36C811.084 1696.98 803.865 1690.66 798.038 1682.41C797.419 1681.59 796.801 1681.1 796.182 1680.94C795.615 1680.74 795.125 1680.89 794.712 1681.41C794.351 1681.87 794.171 1682.62 794.171 1683.65V1695.64C794.171 1698.53 793.32 1700.64 791.618 1701.98C789.968 1703.32 787.777 1703.63 785.044 1702.91L775.298 1700.44ZM776.381 1762.24C773.699 1762.24 771.662 1761.52 770.27 1760.07C768.878 1758.68 768.182 1756.64 768.182 1753.96V1717.76C768.182 1714.87 769.007 1712.76 770.657 1711.42C772.359 1710.08 774.55 1709.77 777.231 1710.49L787.055 1712.97C789.375 1713.53 791.128 1714.59 792.314 1716.14C793.552 1717.69 794.171 1719.67 794.171 1722.09V1753.96C794.171 1756.64 793.449 1758.68 792.005 1760.07C790.613 1761.52 788.576 1762.24 785.894 1762.24H776.381ZM769.497 1628.04C769.136 1628.04 768.826 1627.91 768.568 1627.65C768.311 1627.39 768.182 1627.08 768.182 1626.72V1556.72C768.182 1554.04 768.878 1552 770.27 1550.61C771.662 1549.17 773.699 1548.45 776.381 1548.45H783.806C786.333 1548.45 788.318 1549.07 789.762 1550.3C791.206 1551.49 792.005 1553.22 792.16 1555.49L793.088 1569.87C793.243 1571.47 793.732 1572.4 794.558 1572.66C795.383 1572.91 796.311 1572.4 797.342 1571.11C803.117 1562.81 810.414 1556.49 819.232 1552.16C828.049 1547.78 837.873 1545.58 848.701 1545.58C857.003 1545.58 864.893 1546.87 872.37 1549.45C879.847 1552.03 886.705 1555.72 892.945 1560.51C894.904 1562.11 895.884 1563.89 895.884 1565.85C895.884 1567.81 894.982 1569.72 893.177 1571.57L886.525 1578.23C884.823 1579.98 883.07 1580.83 881.265 1580.78C879.46 1580.73 877.501 1579.85 875.387 1578.15C872.602 1575.93 869.56 1574.05 866.259 1572.5C863.011 1570.96 859.556 1569.79 855.895 1569.02C852.234 1568.25 848.392 1567.86 844.37 1567.86C834.469 1567.86 825.703 1570.28 818.071 1575.13C810.44 1579.93 804.484 1586.79 800.204 1595.71C795.976 1604.58 793.81 1614.91 793.707 1626.72C793.707 1627.08 793.578 1627.39 793.32 1627.65C793.114 1627.91 792.804 1628.04 792.392 1628.04H769.497ZM981.008 1762.24C978.997 1762.24 977.373 1761.83 976.135 1761C974.949 1760.23 974.202 1759.12 973.892 1757.67C973.583 1756.28 973.789 1754.63 974.511 1752.72L991.141 1710.26C991.45 1709.54 991.605 1708.74 991.605 1707.86C991.605 1707.04 991.45 1706.26 991.141 1705.54L932.666 1557.96C931.944 1556.05 931.712 1554.38 931.969 1552.93C932.279 1551.49 933.052 1550.38 934.29 1549.61C935.527 1548.83 937.178 1548.45 939.24 1548.45H949.373C951.642 1548.45 953.575 1549.01 955.174 1550.15C956.773 1551.28 957.984 1552.91 958.809 1555.02L1003.28 1669.42C1003.65 1670.35 1004.14 1671.02 1004.75 1671.43C1005.37 1671.79 1005.99 1671.79 1006.61 1671.43C1007.23 1671.07 1007.69 1670.4 1008 1669.42L1052.4 1555.02C1053.23 1552.91 1054.44 1551.28 1056.04 1550.15C1057.63 1549.01 1059.57 1548.45 1061.84 1548.45H1071.04C1073.05 1548.45 1074.65 1548.86 1075.84 1549.68C1077.08 1550.46 1077.85 1551.57 1078.16 1553.01C1078.47 1554.4 1078.26 1556.05 1077.54 1557.96L999.649 1755.66C998.824 1757.78 997.612 1759.4 996.014 1760.54C994.415 1761.67 992.482 1762.24 990.213 1762.24H981.008Z" fill="#8FA6F9"/>
<path d="M113.877 670.254C112.021 671.388 110.345 671.93 108.849 671.878C107.354 671.775 106.168 671.104 105.291 669.867C104.466 668.629 104.054 666.928 104.054 664.762V646.817C104.054 645.734 103.744 644.883 103.125 644.265C102.507 643.646 101.656 643.336 100.573 643.336H68.164C65.4826 643.336 63.4457 642.64 62.0534 641.248C60.6612 639.804 59.965 637.742 59.965 635.06V629.723C59.965 627.042 60.6612 625.005 62.0534 623.613C63.4457 622.169 65.4826 621.447 68.164 621.447H121.844C124.525 621.447 126.562 622.169 127.954 623.613C129.347 625.005 130.043 627.042 130.043 629.723V654.939C130.043 657.156 129.579 659.038 128.65 660.585C127.774 662.132 126.356 663.499 124.396 664.685L113.877 670.254ZM62.4402 835.238C59.7588 835.238 57.7219 834.516 56.3297 833.072C54.8858 831.68 54.1639 829.643 54.1639 826.962V821.625C54.1639 818.943 54.8858 816.88 56.3297 815.437C57.7219 814.044 59.7588 813.348 62.4402 813.348H93.7663C97.5306 813.348 100.186 812.472 101.733 810.718C103.28 808.965 104.054 806 104.054 801.823V762.298C104.054 759.617 104.75 757.58 106.142 756.188C107.586 754.795 109.649 754.099 112.33 754.099H121.844C124.525 754.099 126.562 754.795 127.954 756.188C129.347 757.58 130.043 759.617 130.043 762.298V805.536C130.043 815.643 127.619 823.12 122.772 827.967C117.976 832.814 110.809 835.238 101.269 835.238H62.4402ZM112.33 744.199C109.649 744.199 107.586 743.503 106.142 742.11C104.75 740.666 104.054 738.604 104.054 735.922V693.768C104.054 691.602 104.518 689.745 105.446 688.198C106.374 686.652 107.818 685.259 109.777 684.022L120.297 678.453C122.102 677.318 123.752 676.802 125.247 676.906C126.743 677.009 127.903 677.705 128.728 678.994C129.604 680.283 130.043 682.011 130.043 684.176V735.922C130.043 738.604 129.347 740.666 127.954 742.11C126.562 743.503 124.525 744.199 121.844 744.199H112.33ZM109.777 594.143C107.096 594.143 105.033 593.447 103.59 592.054C102.197 590.611 101.501 588.548 101.501 585.867V571.248C101.501 568.566 102.197 566.529 103.59 565.137C105.033 563.693 107.096 562.971 109.777 562.971H124.396C127.078 562.971 129.115 563.693 130.507 565.137C131.951 566.529 132.673 568.566 132.673 571.248V585.867C132.673 588.548 131.951 590.611 130.507 592.054C129.115 593.447 127.078 594.143 124.396 594.143H109.777ZM301.287 725.945C303.144 725.945 304.691 726.305 305.928 727.027C307.166 727.698 307.991 728.703 308.403 730.044C308.816 731.385 308.713 732.932 308.094 734.685C305.103 743.709 300.153 751.727 293.243 758.74C286.333 765.753 278.057 771.193 268.414 775.061C258.771 778.928 248.484 780.862 237.552 780.862C222.65 780.862 209.243 777.381 197.331 770.42C185.419 763.407 176.086 753.738 169.331 741.414C162.627 729.09 159.276 715.193 159.276 699.723C159.276 684.254 162.602 670.357 169.254 658.033C175.905 645.708 185.11 636.066 196.867 629.104C208.675 622.091 221.954 618.585 236.701 618.585C250.933 618.585 263.696 621.834 274.989 628.331C286.282 634.828 295.125 643.955 301.519 655.712C307.913 667.418 311.111 680.825 311.111 695.933V697.016C311.111 699.543 310.414 701.502 309.022 702.895C307.681 704.235 305.748 704.906 303.221 704.906H189.674C188.591 704.906 187.74 705.241 187.121 705.911C186.502 706.53 186.27 707.381 186.425 708.464C187.353 718.725 190.034 727.672 194.469 735.304C198.904 742.884 204.808 748.737 212.182 752.862C219.556 756.987 228.013 759.05 237.552 759.05C244.617 759.05 251.165 757.941 257.199 755.724C263.232 753.506 268.414 750.361 272.746 746.287C277.077 742.213 280.326 737.495 282.492 732.132C283.471 730.018 284.657 728.471 286.05 727.491C287.493 726.46 289.298 725.945 291.464 725.945H301.287ZM187.662 682.397C187.301 683.583 187.43 684.537 188.049 685.259C188.668 685.981 189.57 686.342 190.756 686.342H280.481C281.615 686.342 282.517 685.981 283.188 685.259C283.858 684.537 284.09 683.609 283.884 682.475C282.646 674.018 279.913 666.618 275.685 660.276C271.508 653.933 266.068 649.034 259.364 645.579C252.712 642.073 245.158 640.32 236.701 640.32C228.245 640.32 220.613 642.021 213.806 645.425C207.051 648.828 201.43 653.701 196.944 660.044C192.51 666.335 189.416 673.786 187.662 682.397ZM463.547 745.9C463.547 749.871 464.269 752.707 465.713 754.409C467.209 756.11 469.684 756.961 473.139 756.961H481.028C483.555 756.961 485.489 757.632 486.829 758.972C488.221 760.313 488.918 762.247 488.918 764.773V769.724C488.918 772.405 488.196 774.468 486.752 775.912C485.36 777.304 483.323 778 480.641 778H466.487C458.545 778 452.461 776.221 448.232 772.663C444.056 769.053 441.477 763.639 440.498 756.42L440.343 754.563C440.24 753.79 440.033 753.223 439.724 752.862C439.415 752.501 439.002 752.32 438.486 752.32C438.074 752.32 437.584 752.552 437.017 753.016C436.501 753.429 435.676 754.409 434.542 755.956C428.56 764 421.057 770.162 412.033 774.442C403.009 778.722 392.902 780.862 381.713 780.862C371.296 780.862 362.118 778.98 354.177 775.215C346.236 771.4 340.099 766.063 335.768 759.204C331.436 752.346 329.27 744.482 329.27 735.613C329.27 722.928 333.705 712.795 342.574 705.215C351.444 697.583 364.644 692.788 382.177 690.828L434.774 684.872C435.908 684.718 436.707 684.331 437.172 683.712C437.687 683.093 437.945 682.32 437.945 681.392V672.497C437.945 665.948 436.398 660.25 433.304 655.403C430.262 650.504 425.879 646.74 420.155 644.11C414.431 641.428 407.702 640.088 399.967 640.088C393.779 640.088 388.107 641.042 382.95 642.95C377.845 644.806 373.54 647.462 370.033 650.917C366.527 654.371 364.026 658.445 362.53 663.138C361.551 665.458 360.365 667.134 358.972 668.165C357.58 669.197 355.853 669.712 353.79 669.712H344.585C342.781 669.712 341.234 669.351 339.945 668.629C338.655 667.907 337.753 666.876 337.237 665.535C336.722 664.195 336.696 662.596 337.16 660.74C339.12 652.386 343.013 645.038 348.84 638.695C354.667 632.301 362.04 627.351 370.961 623.845C379.882 620.338 389.809 618.585 400.74 618.585C413.322 618.585 424.357 620.751 433.846 625.082C443.334 629.414 450.656 635.55 455.813 643.491C460.969 651.381 463.547 660.508 463.547 670.872V745.9ZM354.795 734.453C354.795 739.97 356.136 744.714 358.818 748.685C361.499 752.604 365.289 755.595 370.188 757.657C375.087 759.72 380.759 760.751 387.204 760.751C395.764 760.751 403.912 758.869 411.647 755.105C419.433 751.341 425.75 745.797 430.597 738.475C435.496 731.101 437.945 722.335 437.945 712.176V706.762C437.945 705.421 437.661 704.493 437.094 703.978C436.579 703.462 435.65 703.281 434.31 703.436L388.21 708.773C380.424 709.701 374.081 711.223 369.182 713.337C364.284 715.451 360.648 718.235 358.276 721.69C355.956 725.145 354.795 729.399 354.795 734.453ZM507.757 703.746C507.293 703.539 506.958 703.281 506.751 702.972C506.545 702.663 506.442 702.276 506.442 701.812V629.723C506.442 627.042 507.138 625.005 508.53 623.613C509.923 622.169 511.959 621.447 514.641 621.447H522.685C525.263 621.447 527.274 622.117 528.718 623.458C530.162 624.747 530.936 626.629 531.039 629.104L531.812 642.64C531.864 643.723 532.096 644.497 532.508 644.961C532.972 645.425 533.514 645.554 534.133 645.347C534.803 645.09 535.422 644.522 535.989 643.646C541.713 635.189 548.777 628.898 557.182 624.773C565.639 620.648 575.23 618.585 585.956 618.585C586.472 618.585 586.858 618.585 587.116 618.585C587.374 618.585 587.761 618.585 588.276 618.585C590.03 618.585 591.448 618.972 592.531 619.745C593.614 620.519 594.284 621.601 594.542 622.994C594.851 624.386 594.774 625.959 594.31 627.712L590.984 635.988C590.52 637.535 589.978 638.773 589.359 639.701C588.741 640.578 587.993 641.171 587.116 641.48C586.24 641.738 585.157 641.789 583.868 641.635C582.682 641.532 581.702 641.454 580.928 641.403C580.155 641.351 579.175 641.325 577.989 641.325C568.965 641.325 560.998 643.362 554.088 647.436C547.23 651.51 541.893 657.491 538.077 665.381C534.313 673.219 532.431 682.681 532.431 693.768V711.558C532.431 711.816 532.379 712.022 532.276 712.176C532.173 712.331 531.993 712.409 531.735 712.409C531.529 712.409 531.271 712.331 530.961 712.176L507.757 703.746ZM514.641 778C511.959 778 509.923 777.304 508.53 775.912C507.138 774.468 506.442 772.405 506.442 769.724V701.812C506.442 701.348 506.545 701.064 506.751 700.961C506.958 700.806 507.293 700.832 507.757 701.038L530.961 709.547C531.477 709.701 531.838 709.959 532.044 710.32C532.302 710.681 532.431 711.094 532.431 711.558V769.724C532.431 772.405 531.709 774.468 530.265 775.912C528.873 777.304 526.836 778 524.155 778H514.641ZM625.713 778C623.032 778 620.995 777.304 619.603 775.912C618.21 774.468 617.514 772.405 617.514 769.724V757.812C617.514 755.337 618.133 753.326 619.371 751.779C620.66 750.232 622.516 749.252 624.94 748.84L634.608 747.602C637.29 747.086 639.43 747.525 641.028 748.917C642.678 750.258 643.503 752.32 643.503 755.105V769.724C643.503 772.405 642.781 774.468 641.338 775.912C639.945 777.304 637.908 778 635.227 778H625.713ZM626.332 738.707C623.651 739.223 621.511 738.81 619.912 737.469C618.313 736.077 617.514 733.989 617.514 731.204V687.425C617.514 678.607 616.096 671.156 613.26 665.071C610.424 658.935 606.324 654.397 600.962 651.458C600.085 650.427 599.389 649.421 598.873 648.441C598.358 647.462 598.048 646.405 597.945 645.27C597.893 644.136 598.074 642.898 598.486 641.557L603.437 629.414C603.952 627.712 604.7 626.397 605.68 625.469C606.711 624.489 607.897 623.948 609.238 623.845C610.579 623.741 611.997 624.102 613.492 624.927C619.783 627.867 625.172 632.044 629.658 637.458C634.144 642.821 637.573 649.37 639.945 657.104C642.317 664.788 643.503 673.425 643.503 683.016V728.497C643.503 730.972 642.859 732.983 641.57 734.53C640.28 736.077 638.45 737.057 636.078 737.469L626.332 738.707ZM700.751 692.607C699.719 694.464 698.559 695.856 697.27 696.784C695.981 697.661 694.357 698.099 692.397 698.099H681.414C678.732 698.099 676.695 697.403 675.303 696.011C673.911 694.567 673.215 692.504 673.215 689.823V684.486C673.215 681.804 673.911 679.768 675.303 678.375C676.695 676.931 678.732 676.209 681.414 676.209H698.894C700.648 676.209 702.091 676.57 703.226 677.292C704.36 678.014 705.031 679.046 705.237 680.386C705.495 681.675 705.185 683.145 704.309 684.795L700.751 692.607ZM715.602 681.701C716.581 679.742 717.716 678.349 719.005 677.524C720.294 676.648 721.944 676.209 723.955 676.209H765.569C768.25 676.209 770.287 676.931 771.679 678.375C773.123 679.768 773.845 681.804 773.845 684.486V689.823C773.845 692.504 773.123 694.567 771.679 696.011C770.287 697.403 768.25 698.099 765.569 698.099H717.458C715.653 698.099 714.184 697.738 713.049 697.016C711.915 696.243 711.219 695.211 710.961 693.922C710.754 692.633 711.09 691.164 711.966 689.513L715.602 681.701ZM780.538 778C777.857 778 775.794 777.304 774.35 775.912C772.958 774.468 772.262 772.405 772.262 769.724V764.387C772.262 761.705 772.958 759.668 774.35 758.276C775.794 756.832 777.857 756.11 780.538 756.11H814.726C815.809 756.11 816.66 755.801 817.279 755.182C817.949 754.563 818.284 753.713 818.284 752.63V702.276C818.284 700.059 818.722 698.176 819.599 696.629C820.476 695.031 821.842 693.69 823.699 692.607L834.373 687.038C836.332 685.852 838.034 685.233 839.478 685.182C840.973 685.13 842.133 685.723 842.958 686.961C843.835 688.147 844.273 690.003 844.273 692.53V752.63C844.273 753.713 844.583 754.563 845.201 755.182C845.82 755.801 846.671 756.11 847.754 756.11H882.019C884.701 756.11 886.737 756.832 888.13 758.276C889.522 759.668 890.218 761.705 890.218 764.387V769.724C890.218 772.405 889.522 774.468 888.13 775.912C886.737 777.304 884.701 778 882.019 778H780.538ZM828.185 677.37C826.431 678.504 824.781 679.046 823.234 678.994C821.739 678.891 820.527 678.221 819.599 676.983C818.722 675.745 818.284 674.044 818.284 671.878V585.248C818.284 583.288 818.361 581.587 818.516 580.143C818.722 578.699 819.006 577.203 819.367 575.657L822.152 565.756C822.822 563.281 823.905 561.424 825.4 560.187C826.947 558.949 828.855 558.33 831.124 558.33H835.997C838.678 558.33 840.715 559.052 842.107 560.496C843.551 561.889 844.273 563.925 844.273 566.607V662.055C844.273 664.272 843.809 666.18 842.881 667.778C842.004 669.377 840.638 670.718 838.781 671.801L828.185 677.37ZM782.394 580.22C779.713 580.22 777.65 579.524 776.207 578.132C774.814 576.688 774.118 574.625 774.118 571.944V566.607C774.118 563.925 774.814 561.889 776.207 560.496C777.65 559.052 779.713 558.33 782.394 558.33H804.516C807.352 558.33 809.466 559.156 810.859 560.806C812.303 562.456 812.663 564.621 811.942 567.303L810.395 572.795C809.776 575.373 808.693 577.255 807.146 578.441C805.651 579.627 803.743 580.22 801.422 580.22H782.394ZM1040.65 769.724C1040.65 772.405 1039.93 774.468 1038.49 775.912C1037.09 777.304 1035.06 778 1032.37 778H1024.33C1021.8 778 1019.82 777.355 1018.37 776.066C1016.98 774.726 1016.18 772.818 1015.98 770.343L1015.28 757.812C1015.23 756.265 1014.77 755.363 1013.89 755.105C1013.01 754.795 1012.06 755.311 1011.03 756.652C1005.25 764.748 998.135 770.807 989.679 774.829C981.273 778.851 971.759 780.862 961.137 780.862C949.328 780.862 939.093 778.413 930.43 773.514C921.818 768.615 915.192 761.344 910.551 751.702C905.91 742.059 903.59 730.302 903.59 716.431V629.723C903.59 627.042 904.286 625.005 905.678 623.613C907.07 622.169 909.107 621.447 911.789 621.447H921.303C923.984 621.447 926.021 622.169 927.413 623.613C928.857 625.005 929.579 627.042 929.579 629.723V712.022C929.579 722.026 931.152 730.482 934.297 737.392C937.443 744.302 941.955 749.484 947.833 752.939C953.712 756.394 960.776 758.121 969.027 758.121C978.102 758.121 986.069 756.085 992.927 752.011C999.785 747.937 1005.12 741.981 1008.94 734.143C1012.75 726.254 1014.66 716.766 1014.66 705.679V629.723C1014.66 627.042 1015.36 625.005 1016.75 623.613C1018.14 622.169 1020.18 621.447 1022.86 621.447H1032.37C1035.06 621.447 1037.09 622.169 1038.49 623.613C1039.93 625.005 1040.65 627.042 1040.65 629.723V769.724ZM1209.98 722.851C1211.88 722.851 1213.48 723.237 1214.77 724.011C1216.11 724.733 1216.99 725.79 1217.4 727.182C1217.87 728.574 1217.79 730.173 1217.17 731.978C1213.92 741.93 1208.87 750.593 1202.01 757.967C1195.2 765.341 1187.06 771.013 1177.57 774.983C1168.13 778.902 1157.92 780.862 1146.94 780.862C1132.29 780.862 1119.09 777.381 1107.34 770.42C1095.58 763.407 1086.37 753.738 1079.72 741.414C1073.12 729.038 1069.82 715.142 1069.82 699.723C1069.82 684.305 1073.12 670.434 1079.72 658.11C1086.37 645.734 1095.58 636.066 1107.34 629.104C1119.09 622.091 1132.29 618.585 1146.94 618.585C1157.82 618.585 1167.95 620.544 1177.34 624.463C1186.72 628.331 1194.84 633.9 1201.7 641.171C1208.56 648.441 1213.66 656.95 1217.02 666.696C1217.63 668.552 1217.71 670.176 1217.25 671.569C1216.78 672.961 1215.88 674.044 1214.54 674.817C1213.25 675.539 1211.65 675.9 1209.74 675.9H1199.38C1197.32 675.9 1195.62 675.41 1194.27 674.43C1192.93 673.399 1191.77 671.826 1190.79 669.712C1188.37 663.576 1184.97 658.394 1180.58 654.165C1176.2 649.885 1171.15 646.662 1165.42 644.497C1159.7 642.331 1153.54 641.248 1146.94 641.248C1137.14 641.248 1128.45 643.594 1120.87 648.287C1113.34 652.979 1107.44 659.734 1103.16 668.552C1098.93 677.37 1096.82 687.76 1096.82 699.723C1096.82 711.687 1098.93 722.077 1103.16 730.895C1107.44 739.713 1113.34 746.468 1120.87 751.16C1128.45 755.853 1137.14 758.199 1146.94 758.199C1153.64 758.199 1159.88 757.09 1165.66 754.873C1171.43 752.656 1176.48 749.381 1180.82 745.05C1185.2 740.666 1188.6 735.329 1191.03 729.038C1191.9 726.924 1193.01 725.377 1194.35 724.398C1195.74 723.366 1197.47 722.851 1199.53 722.851H1209.98Z" fill="#80948C"/>
<path d="M1.80149 1012.75C1.3374 1012.54 1.00222 1012.28 0.795961 1011.97C0.589698 1011.66 0.486567 1011.28 0.486567 1010.81V938.723C0.486567 936.042 1.1827 934.005 2.57498 932.613C3.96725 931.169 6.00409 930.447 8.6855 930.447H16.7297C19.308 930.447 21.3191 931.117 22.7629 932.458C24.2068 933.747 24.9802 935.629 25.0834 938.104L25.8569 951.64C25.9084 952.723 26.1405 953.497 26.553 953.961C27.0171 954.425 27.5585 954.554 28.1773 954.347C28.8477 954.09 29.4664 953.522 30.0337 952.646C35.7574 944.189 42.8219 937.898 51.2271 933.773C59.6839 929.648 69.2751 927.585 80.0007 927.585C80.5164 927.585 80.9031 927.585 81.161 927.585C81.4188 927.585 81.8055 927.585 82.3212 927.585C84.0744 927.585 85.4925 927.972 86.5754 928.745C87.6582 929.519 88.3286 930.601 88.5864 931.994C88.8958 933.386 88.8185 934.959 88.3544 936.712L85.0284 944.988C84.5643 946.535 84.0229 947.773 83.4041 948.701C82.7853 949.578 82.0376 950.171 81.161 950.48C80.2844 950.738 79.2015 950.789 77.9123 950.635C76.7263 950.532 75.7466 950.454 74.9731 950.403C74.1996 950.351 73.2199 950.325 72.0339 950.325C63.0099 950.325 55.043 952.362 48.1332 956.436C41.275 960.51 35.9379 966.491 32.1221 974.381C28.3578 982.219 26.4756 991.681 26.4756 1002.77V1020.56C26.4756 1020.82 26.4241 1021.02 26.3209 1021.18C26.2178 1021.33 26.0373 1021.41 25.7795 1021.41C25.5732 1021.41 25.3154 1021.33 25.006 1021.18L1.80149 1012.75ZM8.6855 1087C6.00409 1087 3.96725 1086.3 2.57498 1084.91C1.1827 1083.47 0.486567 1081.41 0.486567 1078.72V1010.81C0.486567 1010.35 0.589698 1010.06 0.795961 1009.96C1.00222 1009.81 1.3374 1009.83 1.80149 1010.04L25.006 1018.55C25.5217 1018.7 25.8826 1018.96 26.0889 1019.32C26.3467 1019.68 26.4756 1020.09 26.4756 1020.56V1078.72C26.4756 1081.41 25.7537 1083.47 24.3099 1084.91C22.9176 1086.3 20.8808 1087 18.1994 1087H8.6855ZM119.758 1087C117.076 1087 115.04 1086.3 113.647 1084.91C112.255 1083.47 111.559 1081.41 111.559 1078.72V1066.81C111.559 1064.34 112.178 1062.33 113.415 1060.78C114.704 1059.23 116.561 1058.25 118.984 1057.84L128.653 1056.6C131.334 1056.09 133.474 1056.52 135.073 1057.92C136.723 1059.26 137.548 1061.32 137.548 1064.1V1078.72C137.548 1081.41 136.826 1083.47 135.382 1084.91C133.99 1086.3 131.953 1087 129.272 1087H119.758ZM120.377 1047.71C117.695 1048.22 115.555 1047.81 113.957 1046.47C112.358 1045.08 111.559 1042.99 111.559 1040.2V996.425C111.559 987.607 110.141 980.156 107.305 974.071C104.469 967.935 100.369 963.397 95.0063 960.458C94.1297 959.427 93.4336 958.421 92.9179 957.441C92.4023 956.462 92.0929 955.405 91.9898 954.27C91.9382 953.136 92.1187 951.898 92.5312 950.557L97.4815 938.414C97.9971 936.712 98.7448 935.397 99.7246 934.469C100.756 933.489 101.942 932.948 103.283 932.845C104.623 932.741 106.041 933.102 107.537 933.927C113.828 936.867 119.216 941.044 123.703 946.458C128.189 951.821 131.618 958.37 133.99 966.104C136.362 973.788 137.548 982.425 137.548 992.016V1037.5C137.548 1039.97 136.903 1041.98 135.614 1043.53C134.325 1045.08 132.495 1046.06 130.123 1046.47L120.377 1047.71ZM297.514 1054.9C297.514 1058.87 298.236 1061.71 299.68 1063.41C301.175 1065.11 303.65 1065.96 307.105 1065.96H314.995C317.522 1065.96 319.455 1066.63 320.796 1067.97C322.188 1069.31 322.884 1071.25 322.884 1073.77V1078.72C322.884 1081.41 322.163 1083.47 320.719 1084.91C319.326 1086.3 317.29 1087 314.608 1087H300.453C292.512 1087 286.428 1085.22 282.199 1081.66C278.022 1078.05 275.444 1072.64 274.464 1065.42L274.31 1063.56C274.207 1062.79 274 1062.22 273.691 1061.86C273.381 1061.5 272.969 1061.32 272.453 1061.32C272.041 1061.32 271.551 1061.55 270.984 1062.02C270.468 1062.43 269.643 1063.41 268.509 1064.96C262.527 1073 255.024 1079.16 246 1083.44C236.976 1087.72 226.869 1089.86 215.68 1089.86C205.263 1089.86 196.085 1087.98 188.144 1084.22C180.202 1080.4 174.066 1075.06 169.735 1068.2C165.403 1061.35 163.237 1053.48 163.237 1044.61C163.237 1031.93 167.672 1021.8 176.541 1014.22C185.411 1006.58 198.611 1001.79 216.144 999.828L268.741 993.872C269.875 993.718 270.674 993.331 271.138 992.712C271.654 992.093 271.912 991.32 271.912 990.392V981.497C271.912 974.948 270.365 969.25 267.271 964.403C264.229 959.504 259.845 955.74 254.122 953.11C248.398 950.428 241.669 949.088 233.934 949.088C227.746 949.088 222.074 950.042 216.917 951.95C211.812 953.806 207.506 956.462 204 959.917C200.493 963.371 197.993 967.445 196.497 972.138C195.517 974.458 194.331 976.134 192.939 977.165C191.547 978.197 189.819 978.712 187.757 978.712H178.552C176.748 978.712 175.201 978.351 173.911 977.629C172.622 976.907 171.72 975.876 171.204 974.535C170.689 973.195 170.663 971.596 171.127 969.74C173.086 961.386 176.98 954.038 182.806 947.695C188.633 941.301 196.007 936.351 204.928 932.845C213.849 929.338 223.775 927.585 234.707 927.585C247.289 927.585 258.324 929.751 267.812 934.082C277.3 938.414 284.623 944.55 289.779 952.491C294.936 960.381 297.514 969.508 297.514 979.872V1054.9ZM188.762 1043.45C188.762 1048.97 190.103 1053.71 192.784 1057.68C195.466 1061.6 199.256 1064.59 204.155 1066.66C209.053 1068.72 214.726 1069.75 221.171 1069.75C229.731 1069.75 237.879 1067.87 245.613 1064.1C253.4 1060.34 259.717 1054.8 264.564 1047.47C269.462 1040.1 271.912 1031.33 271.912 1021.18V1015.76C271.912 1014.42 271.628 1013.49 271.061 1012.98C270.545 1012.46 269.617 1012.28 268.276 1012.44L222.177 1017.77C214.39 1018.7 208.048 1020.22 203.149 1022.34C198.25 1024.45 194.615 1027.24 192.243 1030.69C189.923 1034.15 188.762 1038.4 188.762 1043.45ZM348.608 1144.24C345.926 1144.24 343.889 1143.52 342.497 1142.07C341.105 1140.68 340.409 1138.64 340.409 1135.96V938.723C340.409 936.042 341.105 934.005 342.497 932.613C343.889 931.169 345.926 930.447 348.608 930.447H356.033C358.56 930.447 360.519 931.066 361.912 932.303C363.355 933.489 364.18 935.217 364.387 937.485L365.315 951.872C365.47 953.522 365.959 954.476 366.785 954.734C367.61 954.94 368.538 954.399 369.569 953.11C375.344 944.808 382.641 938.491 391.459 934.16C400.276 929.776 410.1 927.585 420.928 927.585C434.954 927.585 447.562 931.091 458.752 938.104C469.942 945.066 478.708 954.734 485.05 967.11C491.393 979.434 494.564 993.305 494.564 1008.72C494.564 1024.14 491.393 1038.04 485.05 1050.41C478.708 1062.74 469.942 1072.41 458.752 1079.42C447.562 1086.38 434.954 1089.86 420.928 1089.86C410.254 1089.86 400.586 1087.7 391.923 1083.36C383.311 1078.98 376.092 1072.66 370.265 1064.41C369.646 1063.59 369.028 1063.1 368.409 1062.94C367.842 1062.74 367.352 1062.89 366.939 1063.41C366.578 1063.87 366.398 1064.62 366.398 1065.65V1135.96C366.398 1138.64 365.676 1140.68 364.232 1142.07C362.84 1143.52 360.803 1144.24 358.121 1144.24H348.608ZM365.934 1008.72C365.934 1020.43 368.048 1030.74 372.276 1039.66C376.505 1048.53 382.435 1055.42 390.066 1060.31C397.75 1065.16 406.593 1067.59 416.597 1067.59C426.704 1067.59 435.599 1065.16 443.282 1060.31C450.965 1055.42 456.921 1048.53 461.15 1039.66C465.43 1030.74 467.569 1020.43 467.569 1008.72C467.569 997.018 465.43 986.731 461.15 977.861C456.921 968.941 450.965 962.057 443.282 957.209C435.599 952.311 426.704 949.861 416.597 949.861C406.593 949.861 397.75 952.311 390.066 957.209C382.435 962.057 376.505 968.941 372.276 977.861C368.048 986.731 365.934 997.018 365.934 1008.72ZM638.674 1050.57C636.972 1048.97 635.992 1047.27 635.735 1045.46C635.477 1043.66 635.812 1041.7 636.74 1039.59C639.061 1034.94 640.84 1030.07 642.077 1024.97C643.315 1019.86 643.934 1014.45 643.934 1008.72C643.934 998.72 642.335 989.747 639.138 981.806C635.941 973.813 631.403 967.239 625.525 962.082C619.646 956.926 612.788 953.471 604.95 951.718C603.3 951.254 601.933 950.661 600.851 949.939C599.819 949.165 599.046 948.211 598.53 947.077C598.014 945.942 597.757 944.602 597.757 943.055V935.939C597.757 933.309 598.478 931.323 599.922 929.983C601.418 928.59 603.429 928.126 605.956 928.59C618.538 930.55 629.753 935.191 639.602 942.513C649.451 949.835 657.134 959.246 662.652 970.745C668.169 982.193 670.928 994.852 670.928 1008.72C670.928 1017.8 669.742 1026.41 667.37 1034.56C664.998 1042.65 661.595 1050.05 657.16 1056.76C655.613 1058.92 653.834 1060.08 651.823 1060.24C649.812 1060.34 647.827 1059.49 645.867 1057.68L638.674 1050.57ZM592.806 1089.86C577.955 1089.86 564.574 1086.38 552.662 1079.42C540.802 1072.41 531.495 1062.74 524.74 1050.41C517.985 1038.04 514.607 1024.14 514.607 1008.72C514.607 1008.31 514.736 1008 514.994 1007.8C515.252 1007.54 515.561 1007.41 515.922 1007.41H540.287C540.699 1007.41 541.009 1007.54 541.215 1007.8C541.473 1008 541.602 1008.31 541.602 1008.72C541.602 1020.38 543.742 1030.61 548.022 1039.43C552.301 1048.25 558.283 1055.08 565.966 1059.93C573.701 1064.78 582.648 1067.2 592.806 1067.2C598.478 1067.2 603.816 1066.4 608.817 1064.8C613.819 1063.2 618.305 1060.88 622.276 1057.84C624.442 1056.45 626.401 1055.78 628.155 1055.83C629.959 1055.88 631.713 1056.76 633.414 1058.46L639.37 1064.41C640.608 1065.65 641.433 1066.92 641.845 1068.2C642.258 1069.49 642.206 1070.76 641.69 1071.99C641.175 1073.23 640.169 1074.34 638.674 1075.32C632.331 1080.01 625.267 1083.62 617.48 1086.15C609.746 1088.62 601.521 1089.86 592.806 1089.86ZM515.922 1010.04C515.561 1010.04 515.252 1009.94 514.994 1009.73C514.736 1009.47 514.607 1009.14 514.607 1008.72C514.607 995.368 517.237 983.018 522.497 971.674C527.808 960.277 535.311 950.815 545.005 943.287C554.699 935.758 565.992 930.859 578.884 928.59C579.038 928.59 579.141 928.59 579.193 928.59C579.296 928.539 579.425 928.513 579.58 928.513C582.106 928.101 584.117 928.59 585.613 929.983C587.108 931.323 587.856 933.309 587.856 935.939V943.209C587.856 945.53 587.263 947.386 586.077 948.778C584.943 950.171 583.112 951.254 580.585 952.027C580.534 952.027 580.482 952.053 580.431 952.104C580.379 952.104 580.327 952.104 580.276 952.104C572.18 953.858 565.219 957.441 559.392 962.856C553.565 968.27 549.13 974.974 546.088 982.966C543.097 990.907 541.602 999.493 541.602 1008.72C541.602 1009.08 541.473 1009.39 541.215 1009.65C541.009 1009.91 540.699 1010.04 540.287 1010.04H515.922ZM737.644 867.33C740.325 867.33 742.362 868.052 743.754 869.496C745.198 870.889 745.92 872.925 745.92 875.607V1061.63C745.92 1062.71 746.229 1063.56 746.848 1064.18C747.467 1064.8 748.318 1065.11 749.401 1065.11H783.666C786.347 1065.11 788.384 1065.83 789.776 1067.28C791.169 1068.67 791.865 1070.71 791.865 1073.39V1078.72C791.865 1081.41 791.169 1083.47 789.776 1084.91C788.384 1086.3 786.347 1087 783.666 1087H682.185C679.503 1087 677.441 1086.3 675.997 1084.91C674.605 1083.47 673.908 1081.41 673.908 1078.72V1073.39C673.908 1070.71 674.605 1068.67 675.997 1067.28C677.441 1065.83 679.503 1065.11 682.185 1065.11H716.373C717.456 1065.11 718.306 1064.8 718.925 1064.18C719.596 1063.56 719.931 1062.71 719.931 1061.63V892.701C719.931 891.618 719.596 890.767 718.925 890.148C718.306 889.529 717.456 889.22 716.373 889.22H684.041C681.36 889.22 679.297 888.524 677.853 887.132C676.461 885.688 675.765 883.625 675.765 880.944V875.607C675.765 872.925 676.461 870.889 677.853 869.496C679.297 868.052 681.36 867.33 684.041 867.33H737.644ZM937.019 1034.94C938.875 1034.94 940.422 1035.31 941.66 1036.03C942.897 1036.7 943.722 1037.7 944.135 1039.04C944.547 1040.38 944.444 1041.93 943.825 1043.68C940.835 1052.71 935.884 1060.73 928.975 1067.74C922.065 1074.75 913.789 1080.19 904.146 1084.06C894.503 1087.93 884.216 1089.86 873.284 1089.86C858.381 1089.86 844.974 1086.38 833.063 1079.42C821.151 1072.41 811.817 1062.74 805.062 1050.41C798.359 1038.09 795.007 1024.19 795.007 1008.72C795.007 993.254 798.333 979.357 804.985 967.033C811.637 954.708 820.841 945.066 832.598 938.104C844.407 931.091 857.685 927.585 872.433 927.585C886.665 927.585 899.427 930.834 910.72 937.331C922.013 943.828 930.857 952.955 937.251 964.712C943.645 976.418 946.842 989.825 946.842 1004.93V1006.02C946.842 1008.54 946.146 1010.5 944.754 1011.89C943.413 1013.24 941.479 1013.91 938.953 1013.91H825.405C824.322 1013.91 823.471 1014.24 822.853 1014.91C822.234 1015.53 822.002 1016.38 822.156 1017.46C823.085 1027.73 825.766 1036.67 830.201 1044.3C834.635 1051.88 840.54 1057.74 847.913 1061.86C855.287 1065.99 863.744 1068.05 873.284 1068.05C880.348 1068.05 886.897 1066.94 892.93 1064.72C898.963 1062.51 904.146 1059.36 908.477 1055.29C912.809 1051.21 916.057 1046.5 918.223 1041.13C919.203 1039.02 920.389 1037.47 921.781 1036.49C923.225 1035.46 925.03 1034.94 927.196 1034.94H937.019ZM823.394 991.397C823.033 992.583 823.162 993.537 823.781 994.259C824.4 994.981 825.302 995.342 826.488 995.342H916.212C917.347 995.342 918.249 994.981 918.919 994.259C919.59 993.537 919.822 992.609 919.615 991.475C918.378 983.018 915.645 975.618 911.416 969.276C907.24 962.933 901.799 958.034 895.096 954.579C888.444 951.073 880.89 949.32 872.433 949.32C863.976 949.32 856.344 951.021 849.538 954.425C842.783 957.828 837.162 962.701 832.676 969.044C828.241 975.335 825.147 982.786 823.394 991.397ZM1090.85 1050.57C1089.15 1048.97 1088.17 1047.27 1087.91 1045.46C1087.65 1043.66 1087.99 1041.7 1088.91 1039.59C1091.23 1034.94 1093.01 1030.07 1094.25 1024.97C1095.49 1019.86 1096.11 1014.45 1096.11 1008.72C1096.11 998.72 1094.51 989.747 1091.31 981.806C1088.11 973.813 1083.58 967.239 1077.7 962.082C1071.82 956.926 1064.96 953.471 1057.12 951.718C1055.47 951.254 1054.11 950.661 1053.02 949.939C1051.99 949.165 1051.22 948.211 1050.7 947.077C1050.19 945.942 1049.93 944.602 1049.93 943.055V935.939C1049.93 933.309 1050.65 931.323 1052.1 929.983C1053.59 928.59 1055.6 928.126 1058.13 928.59C1070.71 930.55 1081.93 935.191 1091.78 942.513C1101.63 949.835 1109.31 959.246 1114.83 970.745C1120.34 982.193 1123.1 994.852 1123.1 1008.72C1123.1 1017.8 1121.92 1026.41 1119.54 1034.56C1117.17 1042.65 1113.77 1050.05 1109.33 1056.76C1107.79 1058.92 1106.01 1060.08 1104 1060.24C1101.99 1060.34 1100 1059.49 1098.04 1057.68L1090.85 1050.57ZM1044.98 1089.86C1030.13 1089.86 1016.75 1086.38 1004.84 1079.42C992.976 1072.41 983.669 1062.74 976.914 1050.41C970.159 1038.04 966.781 1024.14 966.781 1008.72C966.781 1008.31 966.91 1008 967.168 1007.8C967.426 1007.54 967.735 1007.41 968.096 1007.41H992.461C992.873 1007.41 993.183 1007.54 993.389 1007.8C993.647 1008 993.776 1008.31 993.776 1008.72C993.776 1020.38 995.916 1030.61 1000.2 1039.43C1004.48 1048.25 1010.46 1055.08 1018.14 1059.93C1025.88 1064.78 1034.82 1067.2 1044.98 1067.2C1050.65 1067.2 1055.99 1066.4 1060.99 1064.8C1065.99 1063.2 1070.48 1060.88 1074.45 1057.84C1076.62 1056.45 1078.58 1055.78 1080.33 1055.83C1082.13 1055.88 1083.89 1056.76 1085.59 1058.46L1091.54 1064.41C1092.78 1065.65 1093.61 1066.92 1094.02 1068.2C1094.43 1069.49 1094.38 1070.76 1093.86 1071.99C1093.35 1073.23 1092.34 1074.34 1090.85 1075.32C1084.51 1080.01 1077.44 1083.62 1069.65 1086.15C1061.92 1088.62 1053.69 1089.86 1044.98 1089.86ZM968.096 1010.04C967.735 1010.04 967.426 1009.94 967.168 1009.73C966.91 1009.47 966.781 1009.14 966.781 1008.72C966.781 995.368 969.411 983.018 974.671 971.674C979.982 960.277 987.485 950.815 997.179 943.287C1006.87 935.758 1018.17 930.859 1031.06 928.59C1031.21 928.59 1031.32 928.59 1031.37 928.59C1031.47 928.539 1031.6 928.513 1031.75 928.513C1034.28 928.101 1036.29 928.59 1037.79 929.983C1039.28 931.323 1040.03 933.309 1040.03 935.939V943.209C1040.03 945.53 1039.44 947.386 1038.25 948.778C1037.12 950.171 1035.29 951.254 1032.76 952.027C1032.71 952.027 1032.66 952.053 1032.6 952.104C1032.55 952.104 1032.5 952.104 1032.45 952.104C1024.35 953.858 1017.39 957.441 1011.57 962.856C1005.74 968.27 1001.3 974.974 998.262 982.966C995.271 990.907 993.776 999.493 993.776 1008.72C993.776 1009.08 993.647 1009.39 993.389 1009.65C993.183 1009.91 992.873 1010.04 992.461 1010.04H968.096ZM1152.14 938.723C1152.14 936.042 1152.84 934.005 1154.23 932.613C1155.62 931.169 1157.66 930.447 1160.34 930.447H1168.39C1170.91 930.447 1172.87 931.117 1174.27 932.458C1175.71 933.747 1176.53 935.629 1176.74 938.104L1177.51 951.563C1177.51 952.646 1177.72 953.445 1178.13 953.961C1178.55 954.425 1179.06 954.554 1179.68 954.347C1180.35 954.09 1181.02 953.522 1181.69 952.646C1187.41 944.189 1194.48 937.898 1202.88 933.773C1211.34 929.648 1220.93 927.585 1231.66 927.585C1243.47 927.585 1253.68 930.034 1262.29 934.933C1270.9 939.832 1277.53 947.102 1282.17 956.745C1286.86 966.388 1289.21 978.145 1289.21 992.016V1078.72C1289.21 1081.41 1288.48 1083.47 1287.04 1084.91C1285.65 1086.3 1283.61 1087 1280.93 1087H1271.42C1268.73 1087 1266.7 1086.3 1265.3 1084.91C1263.91 1083.47 1263.22 1081.41 1263.22 1078.72V996.425C1263.22 986.421 1261.64 977.965 1258.5 971.055C1255.35 964.145 1250.81 958.963 1244.88 955.508C1239.01 952.053 1231.94 950.325 1223.69 950.325C1214.67 950.325 1206.7 952.362 1199.79 956.436C1192.93 960.51 1187.6 966.491 1183.78 974.381C1180.02 982.219 1178.13 991.681 1178.13 1002.77V1078.72C1178.13 1081.41 1177.41 1083.47 1175.97 1084.91C1174.58 1086.3 1172.54 1087 1169.86 1087H1160.34C1157.66 1087 1155.62 1086.3 1154.23 1084.91C1152.84 1083.47 1152.14 1081.41 1152.14 1078.72V938.723Z" fill="#E8C3F0"/>
</svg>
