<svg width="300" height="88" viewBox="0 0 300 88" fill="none" xmlns="http://www.w3.org/2000/svg">
<path d="M266.328 49.171C268.842 39.2452 275.317 35.733 280.498 35.733C286.211 35.733 291.849 39.0925 292.534 49.171H266.328ZM282.935 87.2709C290.477 87.2709 295.734 84.5986 299.619 81.6208L298.4 79.9411C294.743 82.6134 290.325 84.5986 284.688 84.5986C274.403 84.5986 265.338 78.3377 265.338 59.784C265.338 56.1955 265.566 53.065 265.871 51.767H300C297.791 38.329 289.487 33.4424 280.498 33.4424C270.061 33.4424 256.653 42.6811 256.653 60.0894C256.653 78.5668 269.985 87.3473 282.935 87.3473V87.2709ZM222.6 86.4311H240.427V84.5986C235.475 83.377 235.322 81.8499 235.322 68.4119V49.6291L240.96 43.5209C242.788 41.3831 243.626 40.7723 245.302 40.7723C247.588 40.7723 249.264 42.9101 252.006 42.9101C254.596 42.9101 256.044 40.7723 256.044 37.7945C256.044 35.5039 254.368 33.9005 251.473 33.9005C247.664 33.9005 245.378 36.0384 240.96 40.925L235.322 47.0332V33.5188L222.372 40.4668V42.3757C227.019 42.7574 227.019 43.1392 227.019 57.4935V68.4882C227.019 81.9263 226.866 83.4533 222.524 84.675V86.5074L222.6 86.4311ZM184.51 49.171C187.024 39.2452 193.499 35.733 198.68 35.733C204.393 35.733 210.03 39.0925 210.716 49.171H184.51V49.171ZM201.117 87.2709C208.659 87.2709 213.916 84.5986 217.801 81.6208L216.582 79.9411C212.925 82.6134 208.507 84.5986 202.869 84.5986C192.585 84.5986 183.52 78.3377 183.52 59.784C183.52 56.1955 183.748 53.065 184.053 51.767H218.182C215.973 38.329 207.669 33.4424 198.68 33.4424C188.243 33.4424 174.835 42.6811 174.835 60.0894C174.835 78.5668 188.167 87.3473 201.117 87.3473V87.2709ZM107.263 48.1784C110.386 48.1784 112.748 45.8115 112.748 42.6811C112.748 39.5506 110.386 37.26 107.263 37.26C104.139 37.26 101.93 39.627 101.93 42.6811C101.93 45.7352 104.215 48.1784 107.263 48.1784ZM107.263 87.5C110.386 87.5 112.748 85.2858 112.748 82.1553C112.748 79.0249 110.386 76.7343 107.263 76.7343C104.139 76.7343 101.93 79.0249 101.93 82.1553C101.93 85.2858 104.215 87.5 107.263 87.5ZM70.6196 85.2094C62.2397 85.2094 54.8502 78.6431 54.8502 60.7003C54.8502 42.7574 62.2397 35.6566 70.6196 35.6566C78.9995 35.6566 86.5414 42.8338 86.5414 60.7003C86.5414 78.5668 79.0757 85.2094 70.6196 85.2094ZM70.6196 87.4236C81.6658 87.4236 95.3784 77.9559 95.3784 60.7766C95.3784 43.5973 81.6658 33.5188 70.6196 33.5188C59.5734 33.5188 45.937 43.5209 45.937 60.7766C45.937 78.0323 59.6496 87.4236 70.6196 87.4236ZM25.6729 87.1946C33.4434 87.1946 39.0808 84.2168 42.5089 79.8647L41.3662 78.4904C38.1666 82.079 33.4434 84.4459 27.4251 84.4459C16.3027 84.4459 8.60843 77.4215 8.60843 59.6313C8.60843 41.8412 16.7598 35.8857 25.9777 35.8857C30.0914 35.8857 32.7577 37.4127 33.4434 40.0087C33.8243 41.6885 34.5099 44.9716 37.8619 44.9716C40.5282 44.9716 42.2042 43.2155 42.2042 40.3905C42.2042 35.733 34.129 33.5188 25.8253 33.5188C13.8649 33.5188 0 43.75 0 60.1658C0 76.5816 12.1889 87.1946 25.6729 87.1946V87.1946ZM119.909 86.4311H137.506V84.5986C132.783 83.377 132.631 81.8499 132.631 68.4119V48.1784L136.287 44.8189C142.915 38.7107 146.8 36.8783 150.381 36.8783C154.876 36.8783 157.542 39.5506 157.542 46.575V68.3355C157.542 81.7736 157.313 83.3006 152.59 84.5222V86.3547H170.264V84.5222C165.846 83.3006 165.846 81.7736 165.846 68.3355V47.0332C165.846 37.4891 160.97 33.5951 152.819 33.5951C147.638 33.5951 142.534 36.2675 136.287 42.1466L132.631 45.5061V0L119.832 6.56632V8.32243C124.327 8.55148 124.327 8.85689 124.327 21.8368V68.3355C124.327 81.7736 124.175 83.3006 119.909 84.5222V86.3547V86.4311Z" fill="black"/>
</svg>
